<svg width="41" height="40" viewBox="0 0 41 40" fill="none" xmlns="http://www.w3.org/2000/svg">
<rect x="2.5" y="2" width="36" height="36" rx="18" fill="#EAF7FF"/>
<rect x="2.5" y="2" width="36" height="36" rx="18" stroke="#EAF7FF" stroke-width="4"/>
<path d="M20.4996 22.5451C19.9962 22.5451 19.5041 22.3958 19.0855 22.1161C18.6669 21.8364 18.3406 21.4389 18.148 20.9737C17.9553 20.5086 17.9049 19.9968 18.0031 19.5031C18.1013 19.0093 18.3437 18.5557 18.6997 18.1997C19.0557 17.8437 19.5093 17.6013 20.0031 17.5031C20.4968 17.4049 21.0086 17.4553 21.4737 17.648C21.9389 17.8406 22.3364 18.1669 22.6161 18.5855C22.8958 19.0041 23.0451 19.4962 23.0451 19.9996C23.0451 20.6747 22.7769 21.3222 22.2996 21.7996C21.8222 22.2769 21.1747 22.5451 20.4996 22.5451ZM20.4996 18.7269C20.2479 18.7269 20.0019 18.8016 19.7926 18.9414C19.5833 19.0813 19.4201 19.28 19.3238 19.5126C19.2275 19.7452 19.2023 20.0011 19.2514 20.2479C19.3005 20.4948 19.4217 20.7216 19.5997 20.8996C19.7777 21.0776 20.0045 21.1988 20.2513 21.2479C20.4982 21.297 20.7541 21.2718 20.9867 21.1755C21.2193 21.0792 21.418 20.916 21.5579 20.7067C21.6977 20.4974 21.7724 20.2514 21.7724 19.9996C21.7724 19.6621 21.6383 19.3384 21.3996 19.0997C21.1609 18.861 20.8372 18.7269 20.4996 18.7269ZM24.3178 26.9996C24.3178 25.987 23.9156 25.0158 23.1995 24.2998C22.4835 23.5837 21.5123 23.1815 20.4996 23.1815C19.487 23.1815 18.5158 23.5837 17.7998 24.2998C17.0837 25.0158 16.6815 25.987 16.6815 26.9996C16.6815 27.1684 16.7485 27.3303 16.8678 27.4496C16.9872 27.569 17.1491 27.636 17.3178 27.636C17.4866 27.636 17.6485 27.569 17.7678 27.4496C17.8871 27.3303 17.9542 27.1684 17.9542 26.9996C17.9542 26.3245 18.2224 25.6771 18.6997 25.1997C19.1771 24.7224 19.8245 24.4542 20.4996 24.4542C21.1747 24.4542 21.8222 24.7224 22.2996 25.1997C22.7769 25.6771 23.0451 26.3245 23.0451 26.9996C23.0451 27.1684 23.1121 27.3303 23.2315 27.4496C23.3508 27.569 23.5127 27.636 23.6815 27.636C23.8502 27.636 24.0121 27.569 24.1314 27.4496C24.2508 27.3303 24.3178 27.1684 24.3178 26.9996ZM24.3178 17.4542C23.8144 17.4542 23.3222 17.3049 22.9036 17.0252C22.485 16.7455 22.1588 16.348 21.9661 15.8828C21.7735 15.4177 21.7231 14.9059 21.8213 14.4121C21.9195 13.9184 22.1619 13.4648 22.5179 13.1088C22.8739 12.7528 23.3275 12.5104 23.8212 12.4122C24.315 12.314 24.8268 12.3644 25.2919 12.557C25.757 12.7497 26.1546 13.076 26.4343 13.4946C26.714 13.9132 26.8633 14.4053 26.8633 14.9087C26.8633 15.5838 26.5951 16.2313 26.1177 16.7086C25.6404 17.186 24.9929 17.4542 24.3178 17.4542ZM24.3178 13.636C24.0661 13.636 23.82 13.7107 23.6107 13.8505C23.4014 13.9904 23.2383 14.1891 23.142 14.4217C23.0456 14.6542 23.0204 14.9101 23.0696 15.157C23.1187 15.4039 23.2399 15.6307 23.4179 15.8087C23.5959 15.9867 23.8226 16.1079 24.0695 16.157C24.3164 16.2061 24.5723 16.1809 24.8049 16.0846C25.0374 15.9883 25.2362 15.8251 25.3761 15.6158C25.5159 15.4065 25.5906 15.1605 25.5906 14.9087C25.5906 14.5712 25.4565 14.2475 25.2178 14.0088C24.9791 13.7701 24.6554 13.636 24.3178 13.636ZM28.136 21.9087C28.135 20.8964 27.7324 19.9258 27.0166 19.21C26.3007 18.4942 25.3302 18.0916 24.3178 18.0906C24.1491 18.0906 23.9872 18.1576 23.8678 18.2769C23.7485 18.3963 23.6815 18.5581 23.6815 18.7269C23.6815 18.8957 23.7485 19.0576 23.8678 19.1769C23.9872 19.2962 24.1491 19.3633 24.3178 19.3633C24.9929 19.3633 25.6404 19.6315 26.1177 20.1088C26.5951 20.5862 26.8633 21.2336 26.8633 21.9087C26.8633 22.0775 26.9303 22.2394 27.0497 22.3587C27.169 22.4781 27.3309 22.5451 27.4996 22.5451C27.6684 22.5451 27.8303 22.4781 27.9496 22.3587C28.069 22.2394 28.136 22.0775 28.136 21.9087ZM16.6815 17.4542C16.178 17.4542 15.6859 17.3049 15.2673 17.0252C14.8487 16.7455 14.5224 16.348 14.3298 15.8828C14.1371 15.4177 14.0867 14.9059 14.1849 14.4121C14.2831 13.9184 14.5256 13.4648 14.8816 13.1088C15.2375 12.7528 15.6911 12.5104 16.1849 12.4122C16.6786 12.314 17.1904 12.3644 17.6556 12.557C18.1207 12.7497 18.5182 13.076 18.7979 13.4946C19.0776 13.9132 19.2269 14.4053 19.2269 14.9087C19.2269 15.5838 18.9587 16.2313 18.4814 16.7086C18.004 17.186 17.3566 17.4542 16.6815 17.4542ZM16.6815 13.636C16.4297 13.636 16.1837 13.7107 15.9744 13.8505C15.7651 13.9904 15.6019 14.1891 15.5056 14.4217C15.4093 14.6542 15.3841 14.9101 15.4332 15.157C15.4823 15.4039 15.6035 15.6307 15.7815 15.8087C15.9595 15.9867 16.1863 16.1079 16.4332 16.157C16.6801 16.2061 16.936 16.1809 17.1685 16.0846C17.4011 15.9883 17.5998 15.8251 17.7397 15.6158C17.8795 15.4065 17.9542 15.1605 17.9542 14.9087C17.9542 14.5712 17.8201 14.2475 17.5814 14.0088C17.3427 13.7701 17.019 13.636 16.6815 13.636ZM14.136 21.9087C14.136 21.2336 14.4042 20.5862 14.8816 20.1088C15.3589 19.6315 16.0064 19.3633 16.6815 19.3633C16.8502 19.3633 17.0121 19.2962 17.1314 19.1769C17.2508 19.0576 17.3178 18.8957 17.3178 18.7269C17.3178 18.5581 17.2508 18.3963 17.1314 18.2769C17.0121 18.1576 16.8502 18.0906 16.6815 18.0906C15.6691 18.0916 14.6985 18.4942 13.9827 19.21C13.2669 19.9258 12.8643 20.8964 12.8633 21.9087C12.8633 22.0775 12.9303 22.2394 13.0497 22.3587C13.169 22.4781 13.3309 22.5451 13.4996 22.5451C13.6684 22.5451 13.8303 22.4781 13.9496 22.3587C14.069 22.2394 14.136 22.0775 14.136 21.9087Z" fill="#3DB6FB"/>
</svg>
