<svg width="40" height="40" viewBox="0 0 40 40" fill="none" xmlns="http://www.w3.org/2000/svg">
<rect x="2" y="2" width="36" height="36" rx="18" fill="#EAF7FF"/>
<rect x="2" y="2" width="36" height="36" rx="18" stroke="#EAF7FF" stroke-width="4"/>
<path d="M17.256 13.74C17.256 12.7516 18.0603 11.9541 19.0419 11.9541H19.3009C19.3009 11.5792 19.6076 11.2725 19.9825 11.2725C20.3575 11.2725 20.6642 11.5792 20.6642 11.9541H20.8482C21.5776 11.9541 22.2524 12.3426 22.6205 12.9766C22.8114 13.3038 22.6955 13.7196 22.3751 13.9104C22.0479 14.1013 21.6321 13.9854 21.4413 13.665C21.3186 13.4537 21.0936 13.3242 20.8482 13.3242H19.0487C18.8169 13.3242 18.6261 13.5151 18.6261 13.7468C18.6261 13.9582 18.776 14.1354 18.9805 14.1695L21.2163 14.5444C22.082 14.6875 22.7091 15.4305 22.7091 16.3098C22.7091 17.2982 21.9048 18.0958 20.9232 18.0958H20.6642C20.6642 18.4707 20.3575 18.7774 19.9825 18.7774C19.6076 18.7774 19.3009 18.4707 19.3009 18.0958H19.1169C18.3875 18.0958 17.7127 17.7072 17.3446 17.0733C17.1537 16.7461 17.2696 16.3303 17.59 16.1394C17.9172 15.9486 18.333 16.0644 18.5238 16.3848C18.6465 16.5961 18.8715 16.7256 19.1169 16.7256H20.9164C21.1482 16.7256 21.339 16.5348 21.339 16.303C21.339 16.0917 21.1891 15.9145 20.9846 15.8804L18.7488 15.5055C17.8831 15.3623 17.256 14.6194 17.256 13.74ZM25.7084 13.3515C24.7404 13.5423 24.0724 14.4489 24.0724 15.4373V18.8796C23.8952 18.8183 23.7043 18.7774 23.5067 18.7638C22.9682 18.7365 22.4365 18.9205 22.0275 19.2886L19.9825 21.17C19.928 21.1155 19.8667 21.0541 19.8121 20.9996L17.9444 19.2818C17.5354 18.9137 17.0037 18.7297 16.4721 18.7638C16.2744 18.7774 16.0835 18.8115 15.9063 18.8796V15.3623C15.9063 14.1013 14.7611 13.1061 13.4524 13.3583C12.4844 13.5492 11.8164 14.4558 11.8164 15.4441V22.247C11.8164 23.6921 12.389 25.0826 13.4115 26.1051L14.7407 27.4343C14.877 27.5707 15.0474 27.632 15.2246 27.632C15.4019 27.632 15.5723 27.5638 15.7086 27.4343C15.9745 27.1685 15.9745 26.739 15.7086 26.4732L14.3794 25.144C13.6091 24.3737 13.1797 23.3376 13.1797 22.2538V15.3623C13.1797 14.9874 13.4864 14.6807 13.8613 14.6807C14.2363 14.6807 14.543 14.9874 14.543 15.3623C14.543 15.3623 14.543 20.9041 14.5566 20.945C14.5839 21.3745 14.7475 21.8039 15.0542 22.1584L16.8401 24.0125C17.0992 24.2851 17.5286 24.2919 17.8013 24.0329C18.0739 23.7739 18.0807 23.3376 17.8217 23.0718L16.0699 21.2518C15.8518 20.9928 15.8586 20.611 16.0835 20.3588C16.2062 20.2225 16.3698 20.1407 16.5539 20.1339C16.7379 20.1271 16.9083 20.1884 17.0378 20.3043L18.8987 22.022C19.6008 22.6696 19.9962 23.5762 19.9962 24.5305V26.9572C19.9962 27.3321 20.3029 27.6388 20.6778 27.6388C21.0527 27.6388 21.3595 27.3321 21.3595 26.9572V24.5305C21.3595 23.7466 21.1618 22.9764 20.8005 22.2947L22.8932 20.3384C23.159 20.093 23.5612 20.093 23.8339 20.3316C24.127 20.5974 24.1406 21.0473 23.8679 21.3268L22.232 23.0173C21.973 23.2899 21.9798 23.7193 22.2524 23.9784C22.3819 24.1079 22.5524 24.1692 22.7228 24.1692C22.9 24.1692 23.0772 24.1011 23.2136 23.9579L24.9722 22.1311C25.2721 21.7767 25.4289 21.3404 25.4425 20.9041C25.4425 20.8769 25.4425 15.3692 25.4425 15.3692C25.4425 14.9943 25.7493 14.6875 26.1242 14.6875C26.4991 14.6875 26.8058 14.9943 26.8058 15.3692V22.2538C26.8058 23.3376 26.3764 24.3805 25.6061 25.144L24.2769 26.4732C24.0111 26.739 24.0111 27.1685 24.2769 27.4343C24.4133 27.5707 24.5837 27.632 24.7609 27.632C24.9381 27.632 25.1085 27.5638 25.2449 27.4343L26.5741 26.1051C27.5966 25.0826 28.1691 23.6989 28.1691 22.247V15.3623C28.1691 14.1013 27.024 13.1061 25.7152 13.3583L25.7084 13.3515Z" fill="#3DB6FB"/>
</svg>
