<svg width="40" height="40" viewBox="0 0 40 40" fill="none" xmlns="http://www.w3.org/2000/svg">
<rect x="2" y="2" width="36" height="36" rx="18" fill="#EAF7FF"/>
<rect x="2" y="2" width="36" height="36" rx="18" stroke="#EAF7FF" stroke-width="4"/>
<path d="M27.7606 17.3989C27.3567 16.9312 26.7685 16.669 26.152 16.669H26.0883C25.7339 13.4873 23.027 11 19.7531 11C16.4793 11 13.7652 13.4873 13.4109 16.669H13.3755C12.759 16.669 12.1708 16.9383 11.7669 17.3989C11.363 17.8666 11.1858 18.4831 11.2708 19.0925L12.022 24.3506C12.3196 26.4339 14.1266 28 16.2312 28H23.2963C25.4009 28 27.2079 26.4339 27.5055 24.3506L28.2567 19.0925C28.3417 18.4831 28.1645 17.8666 27.7606 17.3989ZM19.7531 12.4173C22.2475 12.4173 24.3167 14.2668 24.6639 16.669H14.8423C15.1896 14.2668 17.2587 12.4173 19.7531 12.4173ZM26.8536 18.8941L26.1024 24.1521C25.904 25.5411 24.6993 26.5827 23.2963 26.5827H16.2312C14.8282 26.5827 13.6235 25.534 13.4251 24.1521L12.6739 18.8941C12.6456 18.6886 12.7023 18.4902 12.8369 18.3272C12.9715 18.1713 13.1629 18.0792 13.3755 18.0792H26.152C26.3575 18.0792 26.5489 18.1642 26.6835 18.3201C26.8181 18.476 26.8819 18.6815 26.8465 18.887L26.8536 18.8941Z" fill="#3DB6FB"/>
</svg>
