<svg width="41" height="40" viewBox="0 0 41 40" fill="none" xmlns="http://www.w3.org/2000/svg">
<rect x="2.5" y="2" width="36" height="36" rx="18" fill="#EAF7FF"/>
<rect x="2.5" y="2" width="36" height="36" rx="18" stroke="#EAF7FF" stroke-width="4"/>
<g clip-path="url(#clip0_2001_13503)">
<path d="M28.5967 17.8604C28.2033 17.5004 27.69 17.3204 27.15 17.3404C26.6167 17.367 26.1233 17.6004 25.7567 17.9937L23.61 20.347C23.2433 19.7404 22.5767 19.3337 21.8167 19.3337H15.9167C14.4433 19.3337 13.25 20.527 13.25 22.0004V25.3337C13.25 26.807 14.4433 28.0004 15.9167 28.0004H19.2233C21.1233 28.0004 22.9367 27.187 24.2033 25.767L28.7433 20.6737C29.47 19.8537 29.4033 18.5937 28.5967 17.8537V17.8604ZM27.75 19.7937L23.21 24.887C22.1967 26.0204 20.75 26.6737 19.23 26.6737H15.9167C15.1833 26.6737 14.5833 26.0737 14.5833 25.3404V22.007C14.5833 21.2737 15.1833 20.6737 15.9167 20.6737H21.8233C22.2433 20.6737 22.5833 21.0137 22.5833 21.4337C22.5833 21.807 22.3033 22.1337 21.93 22.187L18.49 22.6804C18.1233 22.7337 17.87 23.067 17.9233 23.4337C17.9767 23.8004 18.3167 24.0537 18.6767 24.0004L22.1167 23.507C22.9033 23.3937 23.5367 22.847 23.79 22.1337L26.7433 18.8937C26.8633 18.7604 27.03 18.6804 27.21 18.6737C27.39 18.6737 27.5633 18.727 27.6967 18.847C27.97 19.0937 27.99 19.5204 27.7433 19.7937H27.75Z" fill="#3DB6FB"/>
<path d="M19.2487 18.6665H19.502C20.4687 18.6665 21.2487 17.8798 21.2487 16.9198C21.2487 16.0598 20.6353 15.3332 19.7887 15.1932L17.602 14.8265C17.402 14.7932 17.2553 14.6198 17.2553 14.4132C17.2553 14.1865 17.442 13.9998 17.6687 13.9998H19.4287C19.6687 13.9998 19.8887 14.1265 20.0087 14.3332C20.1887 14.6532 20.5953 14.7598 20.922 14.5732C21.242 14.3865 21.3487 13.9798 21.162 13.6598C20.8087 13.0465 20.142 12.6598 19.4287 12.6598H19.2487C19.2487 12.2932 18.9487 11.9932 18.582 11.9932C18.2153 11.9932 17.9153 12.2932 17.9153 12.6598H17.662C16.6953 12.6598 15.9153 13.4465 15.9153 14.4065C15.9153 15.2665 16.5287 15.9932 17.3753 16.1332L19.562 16.4998C19.762 16.5332 19.9087 16.7065 19.9087 16.9132C19.9087 17.1398 19.722 17.3265 19.4953 17.3265H17.7353C17.4953 17.3265 17.2753 17.1998 17.1553 16.9932C16.9687 16.6732 16.562 16.5665 16.242 16.7532C15.922 16.9398 15.8153 17.3465 16.002 17.6665C16.3553 18.2798 17.022 18.6665 17.7353 18.6665H17.9153C17.9153 19.0332 18.2153 19.3332 18.582 19.3332C18.9487 19.3332 19.2487 19.0332 19.2487 18.6665Z" fill="#3DB6FB"/>
</g>
<defs>
<clipPath id="clip0_2001_13503">
<rect width="16" height="16" fill="white" transform="translate(13.25 12)"/>
</clipPath>
</defs>
</svg>
