<svg width="21" height="21" viewBox="0 0 21 21" fill="none" xmlns="http://www.w3.org/2000/svg">
<path d="M10.5 14C9.80777 14 9.13108 13.7947 8.5555 13.4101C7.97993 13.0256 7.53133 12.4789 7.26642 11.8394C7.00151 11.1999 6.9322 10.4961 7.06725 9.81719C7.2023 9.13825 7.53564 8.51461 8.02513 8.02513C8.51461 7.53564 9.13825 7.2023 9.81718 7.06725C10.4961 6.9322 11.1999 7.00152 11.8394 7.26642C12.4789 7.53133 13.0256 7.97993 13.4101 8.55551C13.7947 9.13108 14 9.80777 14 10.5C14 11.4283 13.6313 12.3185 12.9749 12.9749C12.3185 13.6313 11.4283 14 10.5 14ZM10.5 8.75C10.1539 8.75 9.81554 8.85264 9.52775 9.04493C9.23997 9.23722 9.01566 9.51053 8.88321 9.83031C8.75076 10.1501 8.7161 10.5019 8.78362 10.8414C8.85115 11.1809 9.01782 11.4927 9.26256 11.7374C9.50731 11.9822 9.81912 12.1489 10.1586 12.2164C10.4981 12.2839 10.8499 12.2492 11.1697 12.1168C11.4895 11.9843 11.7628 11.76 11.9551 11.4722C12.1474 11.1845 12.25 10.8461 12.25 10.5C12.25 10.0359 12.0656 9.59075 11.7374 9.26256C11.4092 8.93438 10.9641 8.75 10.5 8.75ZM15.75 20.125C15.75 18.7326 15.1969 17.3973 14.2123 16.4127C13.2277 15.4281 11.8924 14.875 10.5 14.875C9.10761 14.875 7.77225 15.4281 6.78769 16.4127C5.80312 17.3973 5.25 18.7326 5.25 20.125C5.25 20.3571 5.34219 20.5796 5.50628 20.7437C5.67038 20.9078 5.89294 21 6.125 21C6.35706 21 6.57962 20.9078 6.74372 20.7437C6.90781 20.5796 7 20.3571 7 20.125C7 19.1967 7.36875 18.3065 8.02513 17.6501C8.6815 16.9937 9.57174 16.625 10.5 16.625C11.4283 16.625 12.3185 16.9937 12.9749 17.6501C13.6313 18.3065 14 19.1967 14 20.125C14 20.3571 14.0922 20.5796 14.2563 20.7437C14.4204 20.9078 14.6429 21 14.875 21C15.1071 21 15.3296 20.9078 15.4937 20.7437C15.6578 20.5796 15.75 20.3571 15.75 20.125ZM15.75 7C15.0578 7 14.3811 6.79473 13.8055 6.41014C13.2299 6.02556 12.7813 5.47893 12.5164 4.83939C12.2515 4.19985 12.1822 3.49612 12.3173 2.81719C12.4523 2.13825 12.7856 1.51461 13.2751 1.02513C13.7646 0.535644 14.3882 0.202301 15.0672 0.0672531C15.7461 -0.0677952 16.4498 0.00151648 17.0894 0.266423C17.7289 0.53133 18.2756 0.979934 18.6601 1.55551C19.0447 2.13108 19.25 2.80777 19.25 3.5C19.25 4.42826 18.8812 5.3185 18.2249 5.97487C17.5685 6.63125 16.6783 7 15.75 7ZM15.75 1.75C15.4039 1.75 15.0655 1.85264 14.7778 2.04493C14.49 2.23722 14.2657 2.51053 14.1332 2.83031C14.0008 3.15008 13.9661 3.50194 14.0336 3.84141C14.1011 4.18088 14.2678 4.4927 14.5126 4.73744C14.7573 4.98218 15.0691 5.14885 15.4086 5.21638C15.7481 5.2839 16.0999 5.24924 16.4197 5.11679C16.7395 4.98434 17.0128 4.76004 17.2051 4.47225C17.3974 4.18446 17.5 3.84612 17.5 3.5C17.5 3.03587 17.3156 2.59075 16.9874 2.26256C16.6592 1.93438 16.2141 1.75 15.75 1.75ZM21 13.125C20.9986 11.733 20.445 10.3985 19.4608 9.41423C18.4765 8.42996 17.142 7.87639 15.75 7.875C15.5179 7.875 15.2954 7.96719 15.1313 8.13128C14.9672 8.29538 14.875 8.51794 14.875 8.75C14.875 8.98207 14.9672 9.20463 15.1313 9.36872C15.2954 9.53281 15.5179 9.625 15.75 9.625C16.6783 9.625 17.5685 9.99375 18.2249 10.6501C18.8812 11.3065 19.25 12.1967 19.25 13.125C19.25 13.3571 19.3422 13.5796 19.5063 13.7437C19.6704 13.9078 19.8929 14 20.125 14C20.3571 14 20.5796 13.9078 20.7437 13.7437C20.9078 13.5796 21 13.3571 21 13.125ZM5.25 7C4.55777 7 3.88108 6.79473 3.3055 6.41014C2.72993 6.02556 2.28133 5.47893 2.01642 4.83939C1.75151 4.19985 1.6822 3.49612 1.81725 2.81719C1.9523 2.13825 2.28564 1.51461 2.77513 1.02513C3.26461 0.535644 3.88825 0.202301 4.56718 0.0672531C5.24612 -0.0677952 5.94985 0.00151648 6.58939 0.266423C7.22893 0.53133 7.77556 0.979934 8.16014 1.55551C8.54473 2.13108 8.75 2.80777 8.75 3.5C8.75 4.42826 8.38125 5.3185 7.72487 5.97487C7.0685 6.63125 6.17826 7 5.25 7ZM5.25 1.75C4.90388 1.75 4.56554 1.85264 4.27775 2.04493C3.98997 2.23722 3.76566 2.51053 3.63321 2.83031C3.50076 3.15008 3.4661 3.50194 3.53363 3.84141C3.60115 4.18088 3.76782 4.4927 4.01256 4.73744C4.2573 4.98218 4.56912 5.14885 4.90859 5.21638C5.24806 5.2839 5.59993 5.24924 5.9197 5.11679C6.23947 4.98434 6.51278 4.76004 6.70507 4.47225C6.89736 4.18446 7 3.84612 7 3.5C7 3.03587 6.81563 2.59075 6.48744 2.26256C6.15925 1.93438 5.71413 1.75 5.25 1.75ZM1.75 13.125C1.75 12.1967 2.11875 11.3065 2.77513 10.6501C3.4315 9.99375 4.32174 9.625 5.25 9.625C5.48206 9.625 5.70462 9.53281 5.86872 9.36872C6.03281 9.20463 6.125 8.98207 6.125 8.75C6.125 8.51794 6.03281 8.29538 5.86872 8.13128C5.70462 7.96719 5.48206 7.875 5.25 7.875C3.85804 7.87639 2.52349 8.42996 1.53922 9.41423C0.55496 10.3985 0.00138988 11.733 0 13.125C0 13.3571 0.0921872 13.5796 0.256282 13.7437C0.420376 13.9078 0.642936 14 0.875 14C1.10706 14 1.32962 13.9078 1.49372 13.7437C1.65781 13.5796 1.75 13.3571 1.75 13.125Z" fill="currentColor"/>
</svg>
