<svg width="19" height="21" viewBox="0 0 19 21" fill="none" xmlns="http://www.w3.org/2000/svg">
<g clip-path="url(#clip0_2001_13419)">
<path d="M9.4336 7C8.74136 7 8.06467 7.20527 7.4891 7.58986C6.91353 7.97444 6.46492 8.52107 6.20002 9.16061C5.93511 9.80015 5.8658 10.5039 6.00085 11.1828C6.1359 11.8617 6.46924 12.4854 6.95872 12.9749C7.44821 13.4644 8.07185 13.7977 8.75078 13.9327C9.42971 14.0678 10.1334 13.9985 10.773 13.7336C11.4125 13.4687 11.9592 13.0201 12.3437 12.4445C12.7283 11.8689 12.9336 11.1922 12.9336 10.5C12.9336 9.57174 12.5648 8.6815 11.9085 8.02513C11.2521 7.36875 10.3619 7 9.4336 7ZM9.4336 12.25C9.08748 12.25 8.74913 12.1474 8.46135 11.9551C8.17356 11.7628 7.94926 11.4895 7.81681 11.1697C7.68435 10.8499 7.6497 10.4981 7.71722 10.1586C7.78475 9.81913 7.95142 9.50731 8.19616 9.26256C8.4409 9.01782 8.75272 8.85115 9.09219 8.78363C9.43165 8.7161 9.78352 8.75076 10.1033 8.88321C10.4231 9.01566 10.6964 9.23997 10.8887 9.52775C11.081 9.81554 11.1836 10.1539 11.1836 10.5C11.1836 10.9641 10.9992 11.4092 10.671 11.7374C10.3428 12.0656 9.89772 12.25 9.4336 12.25Z" fill="currentColor"/>
<path d="M17.5657 12.1625L17.1772 11.9385C17.3521 10.9869 17.3521 10.0114 17.1772 9.05975L17.5657 8.83575C17.8644 8.66339 18.1263 8.43387 18.3364 8.1603C18.5464 7.88673 18.7005 7.57447 18.7899 7.24134C18.8793 6.90821 18.9022 6.56074 18.8573 6.21876C18.8124 5.87679 18.7005 5.54701 18.5282 5.24825C18.3558 4.94949 18.1263 4.68761 17.8527 4.47755C17.5792 4.2675 17.2669 4.11338 16.9338 4.024C16.6006 3.93463 16.2532 3.91174 15.9112 3.95665C15.5692 4.00156 15.2394 4.11339 14.9407 4.28575L14.5513 4.51063C13.8159 3.8823 12.9707 3.39522 12.0584 3.07387V2.625C12.0584 1.92881 11.7819 1.26113 11.2896 0.768845C10.7973 0.276562 10.1296 0 9.43342 0C8.73722 0 8.06954 0.276562 7.57726 0.768845C7.08498 1.26113 6.80842 1.92881 6.80842 2.625V3.07387C5.89613 3.39637 5.05128 3.88465 4.31642 4.51412L3.92529 4.2875C3.32192 3.9394 2.60499 3.84525 1.9322 4.02575C1.25942 4.20626 0.685889 4.64663 0.337793 5.25C-0.0103039 5.85337 -0.104457 6.5703 0.0760471 7.24309C0.256551 7.91588 0.696925 8.4894 1.30029 8.8375L1.68879 9.0615C1.51389 10.0131 1.51389 10.9886 1.68879 11.9403L1.30029 12.1643C0.696925 12.5123 0.256551 13.0859 0.0760471 13.7587C-0.104457 14.4314 -0.0103039 15.1484 0.337793 15.7518C0.685889 16.3551 1.25942 16.7955 1.9322 16.976C2.60499 17.1565 3.32192 17.0623 3.92529 16.7142L4.31467 16.4894C5.05034 17.1178 5.89578 17.6049 6.80842 17.9261V18.375C6.80842 19.0712 7.08498 19.7389 7.57726 20.2312C8.06954 20.7234 8.73722 21 9.43342 21C10.1296 21 10.7973 20.7234 11.2896 20.2312C11.7819 19.7389 12.0584 19.0712 12.0584 18.375V17.9261C12.9707 17.6036 13.8155 17.1153 14.5504 16.4859L14.9415 16.7116C15.5449 17.0597 16.2618 17.1539 16.9346 16.9734C17.6074 16.7929 18.1809 16.3525 18.529 15.7491C18.8771 15.1458 18.9713 14.4288 18.7908 13.756C18.6103 13.0832 18.1699 12.5097 17.5665 12.1616L17.5657 12.1625ZM15.3362 8.8585C15.6325 9.93218 15.6325 11.0661 15.3362 12.1397C15.2844 12.3266 15.2962 12.5254 15.3697 12.7048C15.4432 12.8843 15.5742 13.0342 15.7422 13.1311L16.6907 13.6789C16.8918 13.7949 17.0385 13.9861 17.0986 14.2103C17.1588 14.4345 17.1274 14.6735 17.0114 14.8746C16.8953 15.0756 16.7042 15.2224 16.4799 15.2825C16.2557 15.3427 16.0168 15.3113 15.8157 15.1952L14.8654 14.6458C14.6973 14.5484 14.5016 14.5097 14.3091 14.5359C14.1166 14.562 13.9383 14.6515 13.8023 14.7901C13.0235 15.5852 12.0423 16.1525 10.9647 16.4307C10.7766 16.4791 10.6099 16.5887 10.4909 16.7422C10.372 16.8957 10.3074 17.0844 10.3075 17.2786V18.375C10.3075 18.6071 10.2154 18.8296 10.0513 18.9937C9.88717 19.1578 9.66461 19.25 9.43254 19.25C9.20048 19.25 8.97792 19.1578 8.81382 18.9937C8.64973 18.8296 8.55754 18.6071 8.55754 18.375V17.2795C8.55764 17.0853 8.49312 16.8966 8.37415 16.7431C8.25517 16.5895 8.08851 16.48 7.90042 16.4316C6.82272 16.1522 5.84183 15.5837 5.06367 14.7875C4.92763 14.6488 4.74931 14.5594 4.55683 14.5333C4.36434 14.5071 4.16863 14.5458 4.00054 14.6431L3.05204 15.1917C2.95249 15.2501 2.84238 15.2882 2.72805 15.3038C2.61372 15.3195 2.49743 15.3123 2.38586 15.2828C2.2743 15.2533 2.16968 15.2021 2.07801 15.132C1.98634 15.0619 1.90945 14.9743 1.85175 14.8744C1.79405 14.7745 1.75669 14.6641 1.74181 14.5497C1.72694 14.4353 1.73485 14.319 1.76508 14.2076C1.79532 14.0963 1.84728 13.992 1.91798 13.9008C1.98869 13.8096 2.07673 13.7333 2.17704 13.6763L3.12554 13.1285C3.2935 13.0316 3.42451 12.8816 3.49799 12.7022C3.57148 12.5228 3.58328 12.324 3.53154 12.1371C3.23523 11.0634 3.23523 9.92956 3.53154 8.85588C3.58235 8.6694 3.56999 8.47134 3.49638 8.29263C3.42277 8.11392 3.29207 7.9646 3.12467 7.868L2.17617 7.32025C1.97508 7.20422 1.82833 7.01306 1.76819 6.78882C1.70805 6.56459 1.73945 6.32565 1.85548 6.12456C1.97151 5.92348 2.16267 5.77672 2.38691 5.71658C2.61114 5.65644 2.85008 5.68784 3.05117 5.80387L4.00142 6.35337C4.16905 6.45095 4.36435 6.49006 4.55663 6.46456C4.74891 6.43906 4.92726 6.3504 5.06367 6.2125C5.84249 5.41743 6.82366 4.85014 7.90129 4.57188C8.08997 4.52337 8.25706 4.41328 8.3761 4.25906C8.49513 4.10484 8.55929 3.91531 8.55842 3.7205V2.625C8.55842 2.39294 8.6506 2.17038 8.8147 2.00628C8.97879 1.84219 9.20135 1.75 9.43342 1.75C9.66548 1.75 9.88804 1.84219 10.0521 2.00628C10.2162 2.17038 10.3084 2.39294 10.3084 2.625V3.7205C10.3083 3.91471 10.3728 4.10344 10.4918 4.25695C10.6108 4.41045 10.7774 4.52002 10.9655 4.56838C12.0436 4.84763 13.0248 5.41615 13.8032 6.2125C13.9392 6.35116 14.1175 6.44061 14.31 6.46675C14.5025 6.49289 14.6982 6.45423 14.8663 6.35687L15.8148 5.80825C15.9143 5.74989 16.0245 5.7118 16.1388 5.69616C16.2531 5.68053 16.3694 5.68767 16.481 5.71716C16.5925 5.74666 16.6972 5.79793 16.7888 5.86802C16.8805 5.93812 16.9574 6.02565 17.0151 6.12559C17.0728 6.22552 17.1101 6.33588 17.125 6.45032C17.1399 6.56475 17.132 6.68099 17.1018 6.79236C17.0715 6.90372 17.0196 7.008 16.9489 7.0992C16.8781 7.1904 16.7901 7.26672 16.6898 7.32375L15.7413 7.8715C15.5742 7.96837 15.4439 8.11779 15.3706 8.29648C15.2973 8.47517 15.2852 8.67309 15.3362 8.85938V8.8585Z" fill="currentColor"/>
</g>
<defs>
<clipPath id="clip0_2001_13419">
<rect width="18.8672" height="21" fill="white"/>
</clipPath>
</defs>
</svg>
