<svg width="22" height="20" viewBox="0 0 22 20" fill="none" xmlns="http://www.w3.org/2000/svg">
<path d="M21.71 9.49618C21.3531 6.74875 19.9634 4.24032 17.8234 2.48073C15.6834 0.721148 12.9537 -0.157547 10.1891 0.0232515C7.42449 0.20405 4.83246 1.43077 2.93986 3.45408C1.04726 5.47739 -0.00388801 8.14544 6.7268e-05 10.916C-0.00516891 12.3989 0.295338 13.8669 0.882829 15.2285C1.47032 16.5901 2.33218 17.816 3.41461 18.8296C4.24244 19.5961 5.33322 20.0149 6.46126 19.9996H15.3333C16.525 20.0024 17.67 19.5361 18.5207 18.7015C19.7331 17.522 20.6529 16.0753 21.2067 14.477C21.7604 12.8786 21.9328 11.173 21.71 9.49618ZM17.2508 17.3989C16.7397 17.9025 16.0507 18.1842 15.3333 18.1829H6.46126C5.7975 18.1965 5.15367 17.9557 4.66179 17.5098C3.76004 16.6651 3.04202 15.6437 2.55253 14.5092C2.06304 13.3747 1.81259 12.1515 1.8168 10.916C1.81769 9.63719 2.08819 8.37299 2.61065 7.20583C3.13311 6.03867 3.89579 4.99478 4.84892 4.14228C6.505 2.64884 8.65772 1.82538 10.8877 1.83231C11.244 1.83246 11.6001 1.85247 11.9541 1.89226C13.6579 2.09013 15.2707 2.76662 16.6058 3.84336C17.9409 4.9201 18.9437 6.35303 19.498 7.9762C20.0522 9.59937 20.1353 11.3463 19.7376 13.0148C19.3399 14.6832 18.4777 16.2049 17.2508 17.4035V17.3989ZM7.09167 14.8083C7.26392 14.9769 7.36213 15.2071 7.36468 15.4481C7.36724 15.6892 7.27393 15.9214 7.10529 16.0936C6.93665 16.2659 6.70649 16.3641 6.46545 16.3666C6.2244 16.3692 5.99221 16.2759 5.81996 16.1073C4.78893 15.0973 4.08198 13.8032 3.78923 12.39C3.49647 10.9767 3.63118 9.5083 4.17617 8.17189C4.72116 6.83548 5.65175 5.69162 6.84931 4.88612C8.04688 4.08062 9.45718 3.64996 10.9004 3.64904C11.2478 3.64894 11.5948 3.67352 11.9387 3.72261C12.0568 3.73964 12.1704 3.77977 12.273 3.84072C12.3756 3.90166 12.4652 3.98222 12.5366 4.0778C12.6081 4.17337 12.66 4.28209 12.6894 4.39773C12.7188 4.51338 12.7252 4.63369 12.7081 4.75179C12.6924 4.87054 12.6532 4.98496 12.5927 5.08833C12.5322 5.19169 12.4516 5.28191 12.3557 5.35368C12.2598 5.42545 12.1506 5.47732 12.0343 5.50624C11.9181 5.53516 11.7973 5.54055 11.6789 5.52208C10.5421 5.3597 9.383 5.56056 8.3671 6.09599C7.35119 6.63142 6.53036 7.47406 6.02176 8.50366C5.51315 9.53326 5.34276 10.6972 5.53489 11.8294C5.72703 12.9616 6.27187 14.0041 7.09167 14.8083ZM18.0938 9.87769C18.1429 10.2216 18.1675 10.5686 18.1674 10.916C18.1703 11.884 17.9781 12.8427 17.6023 13.7347C17.2265 14.6268 16.6747 15.4341 15.98 16.1082C15.8075 16.2768 15.5751 16.37 15.3339 16.3673C15.0927 16.3646 14.8624 16.2661 14.6938 16.0936C14.5251 15.9211 14.4319 15.6887 14.4346 15.4475C14.4374 15.2063 14.5358 14.976 14.7083 14.8074C15.322 14.2092 15.7855 13.4742 16.0609 12.6626C16.3362 11.8509 16.4156 10.9857 16.2925 10.1375C16.258 9.89886 16.3198 9.65632 16.4642 9.46323C16.6085 9.27013 16.8237 9.1423 17.0623 9.10785C17.301 9.0734 17.5435 9.13515 17.7366 9.27953C17.9297 9.4239 18.0575 9.63907 18.092 9.87769H18.0938ZM12.6499 10.4509C12.7593 10.844 12.7353 11.2622 12.5818 11.6402C12.4284 12.0183 12.154 12.3349 11.8016 12.5406C11.4493 12.7462 11.0387 12.8294 10.634 12.7771C10.2294 12.7248 9.85345 12.54 9.56494 12.2515C9.27643 11.9629 9.09159 11.587 9.03929 11.1824C8.98699 10.7777 9.07017 10.3671 9.27584 10.0147C9.48151 9.66236 9.79809 9.38801 10.1761 9.23454C10.5542 9.08107 10.9724 9.05713 11.3655 9.16644L14.8 5.73192C14.8838 5.64516 14.9841 5.57596 15.0949 5.52835C15.2057 5.48074 15.3249 5.45568 15.4455 5.45464C15.5661 5.45359 15.6858 5.47657 15.7974 5.52224C15.909 5.56792 16.0104 5.63537 16.0957 5.72066C16.181 5.80594 16.2485 5.90737 16.2941 6.019C16.3398 6.13063 16.3628 6.25025 16.3618 6.37086C16.3607 6.49147 16.3356 6.61067 16.288 6.72149C16.2404 6.83232 16.1712 6.93255 16.0845 7.01634L12.6499 10.4509Z" fill="currentColor"/>
</svg>
