<svg width="26" height="23" viewBox="0 0 26 23" fill="none" xmlns="http://www.w3.org/2000/svg">
<path d="M15.7407 9.26837L10.2591 13.9124C9.55492 13.3159 9.12158 12.499 9.12158 11.5904C9.12158 9.77316 10.8549 8.30469 12.9999 8.30469C14.0724 8.30469 15.0366 8.67181 15.7407 9.26837Z" stroke="black" stroke-opacity="0.65" stroke-width="1.5" stroke-linecap="round" stroke-linejoin="round"/>
<path d="M19.3048 5.87328C17.409 4.66179 15.2423 4.00098 12.9998 4.00098C9.17566 4.00098 5.6115 5.90999 3.13066 9.21406C2.15566 10.5082 2.15566 12.6833 3.13066 13.9774C3.9865 15.1155 4.98316 16.0975 6.0665 16.8868" stroke="black" stroke-opacity="0.65" stroke-width="1.5" stroke-linecap="round" stroke-linejoin="round"/>
<path d="M9.12158 18.5019C10.3566 18.9425 11.6674 19.1811 12.9999 19.1811C16.8241 19.1811 20.3882 17.2721 22.8691 13.968C23.8441 12.6739 23.8441 10.4987 22.8691 9.20463C22.5116 8.72738 22.1216 8.27766 21.7207 7.85547" stroke="black" stroke-opacity="0.65" stroke-width="1.5" stroke-linecap="round" stroke-linejoin="round"/>
<path d="M16.8026 12.2334C16.5209 13.5275 15.2751 14.583 13.7476 14.8216" stroke="black" stroke-opacity="0.65" stroke-width="1.5" stroke-linecap="round" stroke-linejoin="round"/>
<path d="M10.259 13.9131L2.1665 20.769" stroke="black" stroke-opacity="0.65" stroke-width="1.5" stroke-linecap="round" stroke-linejoin="round"/>
<path d="M23.8332 2.41309L15.7407 9.26903" stroke="black" stroke-opacity="0.65" stroke-width="1.5" stroke-linecap="round" stroke-linejoin="round"/>
</svg>
