<svg width="148" height="50" viewBox="0 0 148 50" fill="none" xmlns="http://www.w3.org/2000/svg">
<path d="M109.848 49.7373C109.128 49.7373 108.468 49.6841 107.887 49.5789C107.24 49.4709 106.67 49.2379 106.205 48.8871C105.734 48.5317 105.366 48.0508 105.11 47.4567L105.104 47.4411C104.87 46.8637 104.757 46.1597 104.757 45.2887V35.0305C104.757 34.0121 104.532 33.3168 104.09 32.9643C103.586 32.5563 102.976 32.3597 102.22 32.3597C101.675 32.3597 101.151 32.4297 100.664 32.5678C100.361 32.6505 100.098 32.7412 99.8757 32.8406V49.1293L99.3411 49.2882C98.9955 49.3905 98.4788 49.4876 97.7615 49.5841C97.0778 49.6853 96.3501 49.7373 95.6075 49.7373C94.8867 49.7373 94.2267 49.6841 93.6459 49.5789C93.0066 49.4709 92.4397 49.2391 91.9686 48.8912C91.493 48.5317 91.1254 48.0502 90.8693 47.4567L90.863 47.4416C90.6295 46.8643 90.5156 46.1603 90.5156 45.2887V17.8489L91.1335 17.7402C91.4063 17.6922 91.8906 17.6096 92.6471 17.49C93.3372 17.3796 94.0533 17.3235 94.7729 17.3235C95.4953 17.3235 96.1519 17.3726 96.7241 17.4692C97.3812 17.5784 97.9511 17.8119 98.4158 18.1633C98.8897 18.521 99.2584 19.0071 99.5116 19.6082C99.7561 20.1757 99.8757 20.8814 99.8757 21.7605V25.2699C100.14 25.1959 100.437 25.119 100.769 25.0393C101.64 24.8237 102.611 24.7145 103.653 24.7145C106.874 24.7145 109.44 25.5485 111.282 27.1945C113.155 28.8527 114.106 31.3344 114.106 34.5687V49.1293L113.57 49.2882C113.226 49.3905 112.713 49.487 112.004 49.5841C111.319 49.6853 110.591 49.7373 109.848 49.7373ZM106.486 46.8729C106.64 47.2272 106.842 47.496 107.104 47.6936C107.375 47.8977 107.725 48.0364 108.143 48.1063C108.646 48.197 109.217 48.2421 109.848 48.2421C110.518 48.2421 111.173 48.1959 111.793 48.104C112.112 48.0606 112.384 48.0179 112.611 47.9763V34.5687C112.611 31.7812 111.829 29.6757 110.289 28.3117C108.727 26.9159 106.495 26.2091 103.653 26.2091C102.732 26.2091 101.881 26.3039 101.124 26.4911C100.346 26.679 99.7688 26.8472 99.4029 26.9916L98.3805 27.3956V21.7605C98.3805 21.0982 98.2985 20.5711 98.136 20.1937C97.9823 19.8278 97.7794 19.5556 97.5147 19.3556C97.2448 19.1516 96.8957 19.0129 96.4773 18.9435C95.9849 18.8603 95.4121 18.8181 94.7729 18.8181C94.1319 18.8181 93.4962 18.8684 92.8818 18.9667C92.535 19.0216 92.2466 19.0684 92.0108 19.1071V45.2887C92.0108 45.9505 92.0894 46.4834 92.2455 46.8729C92.3992 47.2272 92.6015 47.496 92.8639 47.6936C93.1373 47.8959 93.4892 48.0364 93.9031 48.1063C94.4053 48.197 94.9758 48.2421 95.6075 48.2421C96.2773 48.2421 96.9316 48.1959 97.5517 48.104C97.876 48.0601 98.1522 48.0173 98.3805 47.9757V31.976L98.7325 31.7564C99.1342 31.5061 99.6491 31.2946 100.264 31.1275C100.877 30.9541 101.537 30.8646 102.22 30.8646C103.317 30.8646 104.262 31.179 105.026 31.7991C105.837 32.4453 106.251 33.5336 106.251 35.0305V45.2887C106.251 45.9499 106.33 46.4828 106.486 46.8729Z" fill="black"/>
<path d="M113.355 48.5781C113.046 48.6683 112.558 48.7585 111.894 48.8486C111.233 48.9417 110.55 48.9902 109.842 48.9902C109.163 48.9902 108.555 48.9417 108.015 48.8486C107.475 48.7585 107.019 48.5764 106.651 48.3013C106.281 48.0233 105.996 47.6453 105.795 47.1691C105.597 46.6899 105.499 46.0658 105.499 45.2971V35.0354C105.499 33.7708 105.181 32.8848 104.547 32.3779C103.917 31.8681 103.14 31.6127 102.218 31.6127C101.6 31.6127 101.012 31.6895 100.455 31.8444C99.9022 31.9988 99.4549 32.1837 99.1174 32.3975V48.5781C98.8082 48.6683 98.3209 48.7585 97.6569 48.8486C96.9957 48.9417 96.3119 48.9902 95.6045 48.9902C94.9254 48.9902 94.3174 48.9417 93.777 48.8486C93.2401 48.7585 92.7864 48.5764 92.413 48.3013C92.0431 48.0233 91.7588 47.6453 91.5576 47.1691C91.3594 46.6899 91.2617 46.0658 91.2617 45.2971V18.4877C91.5992 18.4282 92.0998 18.3444 92.7604 18.2369C93.425 18.1259 94.0955 18.0693 94.7746 18.0693C95.4514 18.0693 96.0576 18.1179 96.5951 18.2109C97.1355 18.3011 97.5892 18.486 97.9591 18.7646C98.3319 19.0443 98.6169 19.4206 98.8145 19.8968C99.0156 20.3731 99.1174 20.9967 99.1174 21.7688V26.2983C99.5191 26.144 100.129 25.9683 100.944 25.7706C101.758 25.5695 102.659 25.4684 103.646 25.4684C106.696 25.4684 109.076 26.2324 110.788 27.7588C112.499 29.2818 113.355 31.5531 113.355 34.5718V48.5781Z" fill="white"/>
<path d="M83.3891 50C80.9432 50 78.6053 49.6463 76.4397 48.9487C74.2469 48.2384 72.298 47.1293 70.6468 45.6514C68.9984 44.1678 67.679 42.2779 66.7236 40.0319C65.7815 37.7836 65.3047 35.0892 65.3047 32.019C65.3047 29.1547 65.7636 26.5885 66.6675 24.3917C67.5847 22.1764 68.8528 20.2783 70.4387 18.7479C72.027 17.2146 73.9071 16.0407 76.027 15.2593C78.1372 14.4831 80.419 14.0895 82.8094 14.0895C86.2113 14.0895 88.9127 14.6692 90.8396 15.813C92.9359 17.0597 93.9982 18.7155 93.9982 20.7349C93.9982 21.8568 93.704 22.8508 93.1237 23.6895C92.5972 24.4547 91.9747 25.0754 91.2742 25.5314L90.7263 25.8886L90.1761 25.5343C89.3132 24.9783 88.3827 24.4969 87.41 24.1027C86.5037 23.734 85.4201 23.5473 84.1867 23.5473C81.7691 23.5473 79.9855 24.246 78.7342 25.6834C77.4638 27.1353 76.8206 29.2662 76.8206 32.019C76.8206 34.7881 77.5309 36.9288 78.9319 38.3818C80.3392 39.836 82.2147 40.544 84.6629 40.544C85.9691 40.544 87.0759 40.3717 87.9527 40.0325C88.9179 39.6603 89.8501 39.2355 90.7252 38.7702L91.3216 38.4529L91.8424 38.8835C92.5428 39.4615 93.0994 40.1677 93.4965 40.9815C93.8976 41.8057 94.101 42.7593 94.101 43.817C94.101 45.6219 93.1318 47.1443 91.2199 48.3413C89.4479 49.4567 86.8858 50 83.3891 50ZM82.8094 16.1101C80.6577 16.1101 78.6105 16.4615 76.7252 17.155C74.8705 17.8388 73.2274 18.8635 71.842 20.2009C70.4572 21.5383 69.3446 23.2075 68.5349 25.1627C67.7327 27.1122 67.3252 29.42 67.3252 32.019C67.3252 34.8198 67.7489 37.2513 68.5846 39.2465C69.4215 41.2138 70.5705 42.8645 71.9963 44.1476C73.4343 45.4347 75.1387 46.4033 77.061 47.0258C79.0243 47.6587 81.1541 47.9794 83.3891 47.9794C86.4506 47.9794 88.7237 47.5257 90.1455 46.6299C91.4482 45.8144 92.0805 44.8949 92.0805 43.817C92.0805 43.0685 91.9458 42.4119 91.6805 41.8675C91.5031 41.504 91.2864 41.1797 91.0234 40.8879C90.2709 41.2618 89.4854 41.6068 88.6809 41.9172C87.5718 42.3461 86.2194 42.564 84.6629 42.564C81.6801 42.564 79.263 41.6294 77.4783 39.7857C75.7011 37.9414 74.8006 35.329 74.8006 32.019C74.8006 28.7628 75.612 26.1839 77.2118 24.3547C78.8446 22.4786 81.1923 21.5267 84.1867 21.5267C85.6824 21.5267 87.0227 21.7637 88.1706 22.2307C89.034 22.5809 89.8698 22.9936 90.6627 23.4612C90.95 23.204 91.217 22.8965 91.4609 22.5422C91.8088 22.0388 91.9776 21.4481 91.9776 20.7349C91.9776 19.4605 91.2679 18.4185 89.8079 17.5498C88.1983 16.5944 85.8431 16.1101 82.8094 16.1101Z" fill="black"/>
<path d="M84.188 22.5306C81.4808 22.5306 79.4077 23.3582 77.968 25.0112C76.5271 26.6613 75.8075 28.9974 75.8075 32.0178C75.8075 35.0764 76.6057 37.4322 78.2015 39.0846C79.7995 40.7346 81.953 41.56 84.6602 41.56C86.0999 41.56 87.3211 41.3669 88.3239 40.9791C89.3249 40.5925 90.2832 40.1526 91.1952 39.6602C91.7922 40.1526 92.2563 40.7427 92.5898 41.4293C92.9262 42.1137 93.0949 42.9112 93.0949 43.8233C93.0949 45.2641 92.2939 46.4854 90.6958 47.487C89.096 48.488 86.6628 48.9902 83.3956 48.9902C81.0398 48.9902 78.8257 48.6562 76.7519 47.9915C74.6817 47.3228 72.8727 46.2952 71.3243 44.9087C69.7788 43.5193 68.5576 41.7634 67.6612 39.6382C66.7665 37.5108 66.3203 34.9706 66.3203 32.0178C66.3203 29.28 66.7503 26.8647 67.6121 24.7725C68.4721 22.6814 69.6488 20.9158 71.1399 19.4749C72.634 18.0352 74.3817 16.9457 76.3832 16.2077C78.387 15.4691 80.5312 15.1003 82.8148 15.1003C86.0456 15.1003 88.5475 15.6292 90.3213 16.6851C92.0974 17.7381 92.9863 19.0894 92.9863 20.7395C92.9863 21.6556 92.758 22.4479 92.302 23.1166C91.8466 23.783 91.32 24.3084 90.723 24.691C89.8069 24.094 88.8296 23.5865 87.7922 23.1658C86.7564 22.7421 85.5554 22.5306 84.188 22.5306Z" fill="white"/>
<path d="M57.013 49.9199C55.0162 49.9199 53.1326 49.6338 51.4143 49.0692C49.6735 48.4981 48.1286 47.6289 46.8236 46.4851C45.518 45.3321 44.4788 43.8692 43.7327 42.1342C42.9923 40.4084 42.6172 38.3798 42.6172 36.1032C42.6172 33.8526 42.9946 31.8783 43.7402 30.2351C44.4875 28.5816 45.4856 27.202 46.7068 26.1351C47.9321 25.0705 49.3464 24.2769 50.9115 23.7753C52.4408 23.2753 54.0377 23.021 55.6531 23.021C57.4662 23.021 59.1457 23.3031 60.6455 23.8591C62.1471 24.407 63.4689 25.1826 64.5705 26.164C65.6802 27.1448 66.5575 28.3406 67.1765 29.7161C67.7949 31.0923 68.1087 32.6048 68.1087 34.2115C68.1087 35.5755 67.7007 36.654 66.8968 37.4169C66.1419 38.1255 65.1097 38.5769 63.8249 38.763L53.1829 40.3616C53.473 40.6974 53.8481 40.976 54.3128 41.2031C55.2763 41.6649 56.4137 41.9007 57.6858 41.9007C58.9128 41.9007 60.0878 41.7418 61.1773 41.4279C62.2754 41.1135 63.1695 40.7488 63.8359 40.3443L64.3248 40.0478L64.8097 40.35C65.453 40.75 65.9969 41.3106 66.4257 42.0163C66.8673 42.733 67.0933 43.5132 67.0933 44.3316C67.0933 46.1302 66.2177 47.5393 64.5606 48.4068C63.4469 48.9946 62.1748 49.4009 60.7831 49.6136C59.4451 49.817 58.1771 49.9199 57.013 49.9199ZM55.6531 24.8815C54.2342 24.8815 52.8321 25.1046 51.4843 25.545C50.1555 25.9709 48.9609 26.6408 47.9287 27.5378C46.9114 28.4261 46.0717 29.5924 45.4347 31.0021C44.799 32.4037 44.4771 34.1196 44.4771 36.1032C44.4771 38.126 44.8019 39.9079 45.4417 41.3996C46.0786 42.8798 46.9565 44.1212 48.0518 45.0887C49.1649 46.0638 50.4925 46.8093 51.994 47.3012C53.5256 47.8046 55.2139 48.0595 57.013 48.0595C58.084 48.0595 59.2578 47.9641 60.5028 47.7751C61.6882 47.5936 62.7626 47.2521 63.6954 46.7602C64.745 46.2106 65.2328 45.439 65.2328 44.3316C65.2328 43.8571 65.1045 43.4173 64.8392 42.9873C64.6606 42.6943 64.4635 42.4486 64.2422 42.2452C63.5296 42.6087 62.6742 42.9341 61.6905 43.2161C60.4352 43.5774 59.0874 43.7612 57.6858 43.7612C56.1334 43.7612 54.7255 43.4635 53.5019 42.8775C52.172 42.2267 51.2802 41.2372 50.845 39.9333L50.4954 38.8838L63.5538 36.9227C64.4589 36.7915 65.1525 36.5031 65.62 36.0645C66.0414 35.6639 66.2483 35.0571 66.2483 34.2115C66.2483 32.8695 65.9899 31.6136 65.4802 30.479C64.9704 29.3462 64.2485 28.3625 63.3354 27.5551C62.4077 26.7287 61.2876 26.0732 60.0034 25.6051C58.7065 25.1242 57.2442 24.8815 55.6531 24.8815ZM50.1503 35.3166L50.2208 34.1549C50.2573 33.5573 50.3781 32.9637 50.5792 32.3909C50.8 31.7731 51.1306 31.2136 51.5623 30.7241C51.9987 30.2195 52.5737 29.804 53.2661 29.4971C53.9435 29.1861 54.7498 29.0266 55.6531 29.0266C57.1142 29.0266 58.2534 29.452 59.0388 30.2906C59.7815 31.0703 60.2225 31.8927 60.345 32.729L60.4779 33.6353L50.1503 35.3166ZM55.6531 30.8871C55.0191 30.8871 54.4735 30.9894 54.0313 31.1922C53.5811 31.3922 53.2251 31.6448 52.9633 31.9476C52.6824 32.2667 52.472 32.6227 52.3327 33.0122C52.3246 33.0348 52.3171 33.0579 52.309 33.0804L58.143 32.1309C58.0204 31.9465 57.8684 31.7586 57.687 31.5679C57.2558 31.1079 56.5923 30.8871 55.6531 30.8871Z" fill="black"/>
<path d="M57.0037 48.9902C55.0999 48.9902 53.3325 48.725 51.7009 48.1938C50.0716 47.6603 48.6527 46.8599 47.4431 45.7941C46.2328 44.7301 45.2792 43.3892 44.5833 41.775C43.8897 40.1613 43.543 38.2731 43.543 36.1092C43.543 33.9794 43.8897 32.1484 44.5833 30.6168C45.2792 29.0824 46.1918 27.8218 47.3188 26.8358C48.4481 25.8504 49.7399 25.1245 51.1917 24.6586C52.6459 24.1899 54.133 23.9541 55.6495 23.9541C57.3614 23.9541 58.9185 24.213 60.3241 24.7292C61.7285 25.2464 62.9376 25.9573 63.9531 26.863C64.9715 27.7663 65.7627 28.8483 66.3256 30.1077C66.892 31.3641 67.1764 32.7351 67.1764 34.2187C67.1764 35.3174 66.8689 36.1566 66.2551 36.7375C65.6407 37.32 64.7848 37.6911 63.6878 37.8535L51.7281 39.6463C52.0812 40.7121 52.8071 41.5126 53.9052 42.046C55.0022 42.5766 56.2627 42.8425 57.6863 42.8425C59.0081 42.8425 60.2565 42.6731 61.4343 42.3333C62.6151 41.9946 63.5757 41.5993 64.3161 41.1467C64.8322 41.4692 65.2668 41.92 65.6217 42.5009C65.9788 43.0835 66.158 43.6967 66.158 44.3428C66.158 45.7941 65.4806 46.8766 64.1265 47.5875C63.0931 48.1372 61.9302 48.5053 60.6385 48.6978C59.345 48.8926 58.133 48.9902 57.0037 48.9902ZM55.6495 29.9614C54.8762 29.9614 54.2058 30.0915 53.64 30.3516C53.0764 30.6088 52.6164 30.9393 52.2586 31.3428C51.9038 31.7433 51.6385 32.1958 51.4622 32.6969C51.2848 33.1951 51.1807 33.7032 51.1484 34.2187L59.4248 32.8645C59.33 32.219 58.9768 31.5739 58.3631 30.9313C57.7487 30.2851 56.8442 29.9614 55.6495 29.9614Z" fill="#3BB6FC"/>
<path d="M134.848 49.7373C134.145 49.7373 133.501 49.6853 132.936 49.5824C132.312 49.4778 131.757 49.2507 131.295 48.9097C130.83 48.5594 130.469 48.089 130.217 47.507L130.21 47.4902C129.982 46.9238 129.871 46.2354 129.871 45.3858V26.7506C129.871 25.1115 130.162 23.6788 130.736 22.4911C131.311 21.2953 132.1 20.2971 133.078 19.5261C134.057 18.7632 135.214 18.198 136.521 17.8431C137.799 17.4975 139.173 17.3218 140.606 17.3218C142.983 17.3218 144.71 17.6408 145.884 18.2974C146.775 18.7961 147.837 19.8324 147.837 21.9379C147.837 22.6598 147.678 23.3251 147.364 23.9146C147.065 24.4862 146.732 24.9162 146.348 25.2242L146.052 25.4612L145.686 25.3629C145.14 25.2161 144.565 25.0919 143.976 24.9925C143.403 24.8977 142.724 24.8497 141.957 24.8497C140.812 24.8497 139.929 25.0318 139.333 25.3907C139.027 25.5756 138.619 25.9461 138.619 27.0246V27.7164H145.684L145.897 28.1013C146.103 28.473 146.296 28.9359 146.471 29.4757C146.661 30.0334 146.76 30.6657 146.76 31.3437C146.76 32.5938 146.449 33.5371 145.836 34.1474C145.235 34.7508 144.433 35.0577 143.453 35.0577H139.024V49.1403L138.49 49.2986C138.152 49.3992 137.648 49.4934 136.948 49.5882C136.282 49.6864 135.573 49.7373 134.848 49.7373ZM131.593 46.9226C131.742 47.2636 131.937 47.5214 132.189 47.711C132.459 47.9104 132.789 48.0421 133.193 48.1103C133.68 48.1982 134.234 48.2421 134.848 48.2421C135.499 48.2421 136.136 48.197 136.739 48.108C137.046 48.0664 137.31 48.0254 137.529 47.9861V33.5625H143.453C144.029 33.5625 144.463 33.4082 144.779 33.0903C145.097 32.7736 145.265 32.1702 145.265 31.3437C145.265 30.8299 145.193 30.36 145.052 29.9468C144.963 29.6705 144.872 29.4254 144.778 29.211H137.124V27.0246C137.124 25.3317 137.905 24.5052 138.561 24.1105C139.405 23.6019 140.516 23.3545 141.957 23.3545C142.806 23.3545 143.568 23.4094 144.222 23.5181C144.711 23.6002 145.192 23.699 145.658 23.8123C145.789 23.6539 145.918 23.4551 146.042 23.217C146.245 22.8361 146.342 22.4194 146.342 21.9379C146.342 20.7982 145.964 20.0555 145.154 19.6018C144.222 19.0811 142.692 18.817 140.606 18.817C139.305 18.817 138.062 18.9747 136.912 19.2857C135.798 19.588 134.818 20.0648 134 20.7028C133.205 21.3294 132.559 22.1501 132.083 23.1401C131.607 24.125 131.366 25.3392 131.366 26.7506V45.3858C131.366 46.0268 131.443 46.5435 131.593 46.9226Z" fill="black"/>
<path d="M130.625 26.7636C130.625 25.232 130.885 23.9177 131.408 22.823C131.934 21.7301 132.646 20.8297 133.544 20.1228C134.446 19.4183 135.505 18.8998 136.72 18.5698C137.936 18.2404 139.234 18.0745 140.617 18.0745C142.834 18.0745 144.467 18.3675 145.516 18.9519C146.568 19.5373 147.095 20.5349 147.095 21.9463C147.095 22.5473 146.966 23.0895 146.713 23.5686C146.457 24.0448 146.18 24.4049 145.879 24.6459C145.311 24.4957 144.717 24.3691 144.1 24.2639C143.486 24.1604 142.774 24.1073 141.964 24.1073C140.673 24.1073 139.668 24.3252 138.951 24.7586C138.232 25.1944 137.873 25.9521 137.873 27.0329V28.4738H145.253C145.431 28.8044 145.603 29.2176 145.766 29.7141C145.932 30.2076 146.017 30.7527 146.017 31.3491C146.017 32.4016 145.782 33.1599 145.316 33.6234C144.852 34.0869 144.228 34.3187 143.449 34.3187H138.274V48.5891C137.973 48.677 137.499 48.7648 136.852 48.8527C136.208 48.9434 135.543 48.9902 134.853 48.9902C134.193 48.9902 133.601 48.9434 133.074 48.8527C132.551 48.7648 132.11 48.588 131.746 48.3198C131.386 48.0487 131.109 47.6812 130.913 47.2176C130.72 46.7506 130.625 46.1432 130.625 45.3942V26.7636Z" fill="white"/>
<path d="M33.3062 49.9531C31.4706 49.9531 29.8858 49.7023 28.5964 49.207C27.1255 48.6307 26.2094 47.7684 25.8678 46.642C25.3818 45.167 24.8564 43.4042 24.3056 41.4016C24.0657 40.5162 23.8178 39.5874 23.5629 38.6193C23.3236 39.6608 23.0815 40.6913 22.8376 41.7056C22.2798 44.0279 21.7909 45.923 21.3418 47.4997L21.2684 47.7569L21.073 47.9395C20.4107 48.5585 19.4808 49.0423 18.2295 49.4179C17.0481 49.7728 15.739 49.9531 14.3386 49.9531C12.5863 49.9531 10.9732 49.7063 9.54388 49.2191C7.96489 48.6677 6.90664 47.8465 6.39225 46.7761C6.03565 46.0617 5.66633 45.0543 5.26234 43.6967C4.87626 42.3911 4.47631 40.8849 4.07289 39.2181C3.67988 37.5876 3.26375 35.7613 2.83548 33.7887C2.41646 31.8508 2.02691 29.8846 1.67898 27.9444C1.33336 26.029 1.00739 24.1131 0.710315 22.2503C0.425958 20.4095 0.202865 18.6848 0.0473933 17.1209L0 16.6406L0.356602 16.3146C0.955948 15.7667 1.7414 15.2818 2.75803 14.8322C3.79547 14.3692 4.92307 14.134 6.10616 14.134C7.6892 14.134 9.02429 14.4964 10.0756 15.2107C11.2026 15.9696 11.9048 17.2134 12.1586 18.9045C12.7672 22.7566 13.2446 25.8094 13.6173 28.2299C14 30.6972 14.3115 32.7588 14.5421 34.3568C14.6218 34.8805 14.6935 35.3619 14.7577 35.8035C15.038 34.6181 15.3218 33.4281 15.6096 32.2334C15.9153 31.0006 16.239 29.6413 16.5725 28.1877C16.9002 26.7503 17.2493 25.0892 17.6093 23.2513L17.7058 22.7589L18.1647 22.5555C18.6121 22.3578 19.271 22.1364 20.1801 21.8804C21.1274 21.6163 22.0926 21.4828 23.052 21.4828C24.7182 21.4828 26.1406 21.7463 27.2798 22.2653C28.5785 22.8421 29.3911 23.7299 29.6881 24.8997C30.0869 26.3868 30.462 27.7883 30.81 29.091C31.1712 30.436 31.5029 31.6508 31.8249 32.8027C32.1144 33.8425 32.397 34.8915 32.6681 35.9272C32.7675 35.1937 32.8623 34.4736 32.9525 33.7696C33.2016 31.8121 33.4397 29.8042 33.6593 27.8022C33.883 25.8452 34.102 23.909 34.3153 21.9925C34.539 20.0691 34.7621 18.1213 34.9857 16.1407L35.0406 15.654L35.4666 15.4113C36.9554 14.564 38.5702 14.134 40.266 14.134C41.7935 14.134 43.1408 14.4773 44.2689 15.1547C45.1584 15.6841 46.2225 16.7718 46.2225 18.9391C46.2225 19.7795 46.1346 20.9695 45.9618 22.4768C45.7982 23.9801 45.5757 25.6637 45.3018 27.4756C45.0347 29.3003 44.7128 31.248 44.347 33.261C43.9771 35.2827 43.5875 37.2305 43.1887 39.0499C42.7813 40.9011 42.3576 42.5922 41.9288 44.077C41.4913 45.6196 41.0896 46.7847 40.7018 47.6355L40.6226 47.8095L40.4827 47.9395C39.8129 48.566 38.798 49.0521 37.3808 49.4266C36.0671 49.7757 34.6962 49.9531 33.3062 49.9531ZM24.4287 34.2696C25.039 36.6675 25.6233 38.8961 26.1649 40.8942C26.7076 42.8679 27.2249 44.6041 27.7023 46.0502L27.7104 46.0767C27.8705 46.6125 28.4028 47.061 29.2934 47.4101C30.3557 47.8176 31.7075 48.0256 33.3062 48.0256C34.5286 48.0256 35.7336 47.8702 36.8872 47.5638C38.0622 47.2535 38.6945 46.9107 39.032 46.6466C39.3517 45.9039 39.7025 44.863 40.0758 43.547C40.4943 42.0969 40.9081 40.4462 41.3063 38.6366C41.7005 36.8392 42.0854 34.914 42.4507 32.9154C42.8131 30.9249 43.1309 28.9991 43.3951 27.1919C43.6661 25.4019 43.8852 23.7449 44.0464 22.2624C44.2117 20.8221 44.2955 19.7061 44.2955 18.9391C44.2955 17.5711 43.7164 17.0683 43.2806 16.8094C42.4524 16.3123 41.4392 16.0609 40.266 16.0609C39.0679 16.0609 37.9189 16.3302 36.8439 16.8614C36.6393 18.6704 36.4347 20.4528 36.2301 22.2104C36.0174 24.124 35.7983 26.0625 35.5747 28.0166C35.3539 30.0256 35.1146 32.045 34.8644 34.0135C34.6054 36.0376 34.3072 38.1916 33.9783 40.4168L33.8564 41.2398H31.9896L31.8179 40.4913C31.5272 39.2244 31.2238 37.9974 30.9157 36.8438C30.6123 35.6752 30.2944 34.4915 29.9684 33.32C29.6454 32.1629 29.3113 30.9422 28.9483 29.5898C28.6004 28.2865 28.2259 26.8855 27.8231 25.3869C27.6739 24.7979 27.2382 24.3558 26.4891 24.0229C25.5944 23.6149 24.4408 23.4103 23.052 23.4103C22.2671 23.4103 21.4759 23.5195 20.7003 23.7356C20.1726 23.8848 19.7368 24.02 19.3981 24.1402C19.0704 25.7926 18.7525 27.2965 18.4508 28.6171C18.115 30.0834 17.7891 31.4537 17.4816 32.6912C17.1805 33.9413 16.8817 35.1932 16.5875 36.441C16.291 37.6923 15.9766 39.0539 15.6529 40.4879L15.4836 41.2398H13.6595L13.5012 40.4705C13.3908 39.9313 13.2775 39.2267 13.1556 38.3159C13.0498 37.4472 12.8799 36.2485 12.6354 34.6389C12.4048 33.0408 12.0944 30.9862 11.7124 28.5241C11.3402 26.1053 10.8634 23.0548 10.2542 19.1975C10.0802 18.0398 9.66871 17.2602 8.99539 16.807C8.26658 16.3112 7.29561 16.0609 6.10616 16.0609C5.19529 16.0609 4.33182 16.2401 3.54059 16.5932C2.92853 16.8637 2.41877 17.148 2.01824 17.4428C2.1662 18.834 2.36617 20.3476 2.6147 21.9515C2.90888 23.7969 3.23254 25.7001 3.57527 27.6034C3.92031 29.5216 4.30465 31.4653 4.71847 33.3807C5.14385 35.3376 5.5571 37.1501 5.94664 38.7655C6.34139 40.4006 6.73325 41.8755 7.11008 43.1488C7.47708 44.3833 7.81693 45.3167 8.11978 45.9213L8.12671 45.9369C8.41107 46.531 9.09942 47.0223 10.1727 47.3974C11.3939 47.8135 12.7978 48.0256 14.3386 48.0256C15.5512 48.0256 16.6736 47.873 17.6752 47.5725C18.4948 47.3263 19.1299 47.0304 19.5669 46.6928C19.983 45.211 20.4523 43.384 20.9638 41.2554C21.5059 39.0002 22.0406 36.6612 22.5532 34.3025L24.4287 34.2696Z" fill="black"/>
<path d="M18.555 23.4411C18.9579 23.2607 19.5878 23.0504 20.449 22.8134C21.309 22.5741 22.1777 22.4527 23.0539 22.4527C24.5884 22.4527 25.8668 22.6816 26.8898 23.1394C27.9151 23.5977 28.537 24.2641 28.7543 25.1397C29.1566 26.6407 29.5311 28.0387 29.879 29.3368C30.2252 30.6315 30.5627 31.8747 30.891 33.0658C31.2228 34.2541 31.5424 35.4326 31.8499 36.6001C32.1608 37.7693 32.4625 38.9917 32.7555 40.2701H33.0341C33.3612 38.0415 33.6525 35.9117 33.9103 33.8831C34.1663 31.8556 34.4027 29.8639 34.6206 27.9104C34.8408 25.954 35.0599 24.015 35.2777 22.0973C35.4979 20.1796 35.717 18.2348 35.9343 16.261C37.2873 15.4912 38.7316 15.1063 40.2679 15.1063C41.6203 15.1063 42.7907 15.401 43.7778 15.9882C44.7632 16.5731 45.258 17.5603 45.258 18.948C45.258 19.7502 45.1747 20.8928 45.0089 22.3753C44.8465 23.8555 44.6274 25.5102 44.3523 27.3359C44.0795 29.1635 43.7599 31.0829 43.3929 33.0959C43.0259 35.1055 42.6415 37.0231 42.2387 38.8495C41.8393 40.677 41.4296 42.33 41.0077 43.8101C40.5886 45.2897 40.1968 46.4324 39.8298 47.2375C39.2807 47.7461 38.3854 48.1668 37.1422 48.498C35.8991 48.8251 34.6206 48.9893 33.3063 48.9893C31.5898 48.9893 30.1362 48.7615 28.9496 48.3084C27.7614 47.8513 27.0389 47.2016 26.7829 46.3613C26.3049 44.8979 25.7917 43.1617 25.2438 41.1521C24.6953 39.1396 24.1104 36.9284 23.492 34.5165C22.9782 36.8931 22.447 39.2136 21.8997 41.4775C21.3506 43.7431 20.8576 45.6625 20.4195 47.2375C19.8705 47.7461 19.048 48.1668 17.951 48.498C16.8575 48.8251 15.6513 48.9893 14.3347 48.9893C12.6887 48.9893 11.1987 48.7615 9.86537 48.3084C8.53028 47.8513 7.66333 47.2016 7.2605 46.3613C6.93221 45.7024 6.57677 44.7245 6.19531 43.4252C5.81213 42.1271 5.41969 40.6475 5.01743 38.9853C4.61459 37.3208 4.20193 35.521 3.78001 33.5872C3.36099 31.6498 2.9778 29.7125 2.6316 27.774C2.28367 25.8367 1.96406 23.9439 1.67277 22.0973C1.37974 20.2507 1.16069 18.5608 1.01562 17.0245C1.52481 16.5506 2.23512 16.1125 3.14657 15.7103C4.06148 15.3074 5.04979 15.1063 6.11209 15.1063C7.50035 15.1063 8.64298 15.4086 9.5394 16.0119C10.4352 16.6159 10.9912 17.6314 11.2091 19.0549C11.7923 22.7839 12.276 25.8916 12.6592 28.378C13.0453 30.8609 13.358 32.8971 13.5944 34.4865C13.8313 36.0776 14.0041 37.3133 14.1157 38.1924C14.2249 39.0686 14.3359 39.761 14.4469 40.2701H14.7191C15.0462 38.8108 15.3554 37.4584 15.6484 36.2152C15.9444 34.972 16.2466 33.7218 16.5541 32.4625C16.8651 31.2002 17.1847 29.846 17.5135 28.4017C17.8447 26.9574 18.1909 25.3044 18.555 23.4411Z" fill="#3BB6FC"/>
<path d="M123.165 49.7373C121.186 49.7373 119.321 49.4535 117.624 48.8941C115.902 48.3294 114.378 47.4723 113.097 46.3464C111.812 45.2153 110.789 43.7739 110.054 42.0614C109.324 40.3622 108.953 38.3572 108.953 36.1032C108.953 33.8752 109.325 31.9257 110.06 30.3091C110.796 28.6804 111.778 27.3217 112.98 26.2727C114.186 25.2248 115.579 24.4428 117.12 23.9487C118.634 23.4545 120.212 23.2037 121.805 23.2037C123.599 23.2037 125.257 23.4817 126.735 24.0307C128.217 24.5717 129.519 25.3364 130.602 26.3016C131.69 27.2633 132.552 28.4383 133.161 29.7907C133.77 31.1431 134.078 32.6308 134.078 34.2127C134.078 35.5241 133.69 36.5575 132.923 37.284C132.196 37.966 131.197 38.4018 129.952 38.5815L118.999 40.2264C119.326 40.6963 119.785 41.0731 120.385 41.3661C121.372 41.8406 122.536 42.0822 123.839 42.0822C125.089 42.0822 126.28 41.921 127.38 41.6042C128.499 41.2817 129.408 40.9107 130.081 40.5009L130.474 40.2616L130.864 40.5044C131.484 40.8899 132.008 41.4308 132.421 42.1117C132.845 42.7971 133.062 43.5456 133.062 44.3305C133.062 46.0586 132.22 47.4122 130.627 48.245C129.527 48.8235 128.276 49.2235 126.907 49.4321C125.578 49.6344 124.319 49.7373 123.165 49.7373ZM121.805 24.6983C120.369 24.6983 118.948 24.9248 117.58 25.371C116.229 25.8045 115.013 26.4865 113.962 27.3997C112.924 28.3059 112.069 29.4925 111.422 30.9264C110.775 32.3482 110.448 34.0896 110.448 36.1032C110.448 38.1532 110.778 39.9594 111.427 41.4713C112.075 42.9786 112.968 44.2409 114.084 45.224C115.212 46.2146 116.561 46.9718 118.091 47.474C119.638 47.9838 121.345 48.2421 123.165 48.2421C124.244 48.2421 125.427 48.1456 126.682 47.9543C127.885 47.7705 128.979 47.4231 129.933 46.9215C131.049 46.3377 131.567 45.5147 131.567 44.3305C131.567 43.8201 131.429 43.3503 131.146 42.8925C130.937 42.5475 130.694 42.2579 130.42 42.0261C129.701 42.4064 128.837 42.7399 127.794 43.0405C126.559 43.3965 125.229 43.5768 123.839 43.5768C122.31 43.5768 120.929 43.2855 119.733 42.711C118.451 42.0851 117.59 41.1309 117.172 39.8744L116.891 39.0311L129.734 37.1031C130.674 36.9667 131.401 36.6621 131.898 36.1962C132.358 35.7599 132.583 35.1103 132.583 34.2127C132.583 32.8435 132.319 31.5622 131.798 30.4045C131.276 29.2468 130.54 28.2423 129.609 27.4193C128.666 26.5778 127.526 25.9109 126.218 25.4335C124.904 24.9451 123.421 24.6983 121.805 24.6983ZM116.497 35.101L116.556 34.1659C116.592 33.5827 116.709 33.0065 116.903 32.4522C117.118 31.854 117.436 31.3154 117.851 30.8455C118.277 30.3554 118.83 29.9566 119.493 29.6636C120.145 29.3636 120.927 29.2087 121.805 29.2087C123.21 29.2087 124.304 29.6138 125.057 30.4126C125.776 31.1709 126.199 31.9598 126.316 32.7568L126.422 33.4845L116.497 35.101ZM121.805 30.7039C121.144 30.7039 120.573 30.8125 120.108 31.0264C119.637 31.2345 119.26 31.5032 118.976 31.8298C118.683 32.1627 118.461 32.5389 118.311 32.9527C118.27 33.0695 118.234 33.1885 118.202 33.3082L124.591 32.2678C124.445 31.9974 124.237 31.7205 123.971 31.4396C123.504 30.9437 122.796 30.7039 121.805 30.7039Z" fill="black"/>
<path d="M123.167 48.9902C121.261 48.9902 119.494 48.7238 117.863 48.195C116.231 47.6609 114.811 46.8604 113.603 45.7953C112.393 44.7307 111.441 43.3927 110.745 41.7784C110.053 40.1613 109.707 38.2719 109.707 36.1104C109.707 33.9806 110.053 32.1508 110.745 30.6174C111.441 29.0806 112.352 27.8201 113.482 26.8364C114.609 25.8521 115.898 25.1279 117.35 24.6592C118.806 24.1928 120.292 23.9582 121.812 23.9582C123.519 23.9582 125.074 24.2177 126.476 24.7332C127.881 25.2505 129.092 25.9602 130.108 26.863C131.128 27.7663 131.918 28.8483 132.481 30.1053C133.047 31.3636 133.33 32.7368 133.33 34.2233C133.33 35.3203 133.024 36.1606 132.414 36.7438C131.802 37.3235 130.946 37.694 129.846 37.8558L117.889 39.6423C118.243 40.7121 118.969 41.5137 120.066 42.0483C121.162 42.5789 122.42 42.8436 123.84 42.8436C125.165 42.8436 126.417 42.6749 127.595 42.3379C128.771 41.9975 129.733 41.5998 130.48 41.145C130.995 41.4686 131.431 41.9235 131.787 42.5067C132.141 43.0864 132.319 43.6978 132.319 44.34C132.319 45.7953 131.64 46.8789 130.284 47.5881C129.25 48.1377 128.087 48.5065 126.793 48.7007C125.502 48.8926 124.294 48.9902 123.167 48.9902ZM121.812 29.9637C121.033 29.9637 120.363 30.0949 119.797 30.3545C119.234 30.6105 118.776 30.9411 118.422 31.3451C118.066 31.7462 117.798 32.1976 117.62 32.6998C117.444 33.1986 117.34 33.7078 117.31 34.2233L125.587 32.8686C125.492 32.2213 125.136 31.578 124.521 30.9341C123.91 30.2868 123.006 29.9637 121.812 29.9637Z" fill="white"/>
<path d="M63.643 22.8262C63.4551 22.8262 63.2759 22.7695 63.1228 22.6626C60.4041 20.8241 55.3746 20.4837 53.8968 20.423C53.6315 20.4155 53.3847 20.4114 53.153 20.4114C52.2253 20.4114 51.4942 20.4716 50.8521 20.6004L49.7846 20.8206C49.7308 20.8316 49.6765 20.8374 49.6228 20.8374C49.4066 20.8374 49.1974 20.7496 49.0448 20.5895C48.8547 20.3901 48.7807 20.1069 48.8489 19.8398C49.0569 19.029 49.2465 18.1141 49.3569 17.3922C49.5112 16.4212 49.6459 15.3809 49.7655 14.2284C49.7308 14.2226 49.6962 14.2163 49.6621 14.2093C48.4692 14.0689 47.2999 13.3465 46.4498 12.2212C45.2418 10.6399 44.4668 8.23323 44.5673 6.37335C44.6587 4.33372 45.9019 2.45997 47.7334 1.60748C48.5761 1.20059 49.6141 0.991951 50.8082 0.991951C50.8873 0.991951 50.966 0.992531 51.0451 0.994265C51.6537 1.00351 52.2658 1.05553 52.857 1.10639C53.4963 1.16129 54.0997 1.21273 54.6961 1.21273C54.8707 1.21273 55.0388 1.20811 55.1972 1.19944C55.7625 1.17459 56.3196 1.03125 56.9103 0.87925C57.201 0.804691 57.5021 0.727823 57.8107 0.662514C57.8183 0.66078 57.8264 0.659624 57.8344 0.65789C57.8882 0.648643 57.9437 0.64344 57.998 0.64344C58.4008 0.64344 58.7476 0.905256 58.8649 1.28151C59.6359 0.946293 60.4295 0.615698 61.2438 0.370066C62.0767 0.117496 62.7772 -0.000408173 63.4459 -0.000408173C64.025 -0.000408173 64.5798 0.0932217 65.0959 0.27817C65.534 0.41399 65.9531 0.575241 66.342 0.757877C68.5712 1.77856 70.1641 3.71646 70.5565 5.86301C70.7351 5.84625 70.9154 5.83758 71.0975 5.83758C72.0806 5.83758 73.0522 6.08032 73.9064 6.54038C75.9275 7.62463 77.1175 10.0324 76.7344 12.2639C76.2362 15.0537 74.5514 17.0916 72.2274 17.721C71.5292 17.9158 70.7941 18.0158 70.0479 18.0158C69.129 18.0158 68.2112 17.8626 67.3483 17.5696C67.1928 18.1574 67.0518 18.7614 66.9136 19.352C66.8009 19.8335 66.6842 20.3305 66.5634 20.8056C66.5177 20.9871 66.3993 21.3946 66.2941 21.7535C66.2496 21.9066 66.2108 22.0401 66.1871 22.1216C66.1143 22.3794 65.9172 22.5834 65.6618 22.6649C65.582 22.6904 65.4999 22.7031 65.4185 22.7031C65.2393 22.7031 65.0618 22.6424 64.9185 22.5268L64.5087 22.1973C64.4741 22.3049 64.4186 22.4071 64.3417 22.4996C64.3371 22.5054 64.3325 22.5106 64.3273 22.5164C64.1544 22.7135 63.9053 22.8262 63.643 22.8262Z" fill="white"/>
<path d="M73.5217 7.30166C72.4253 6.71156 71.059 6.52661 69.8511 6.85663C69.8447 6.67861 69.8297 6.49945 69.8054 6.32317C69.5297 4.19165 67.9108 2.41557 65.996 1.53881C65.6204 1.36253 65.2326 1.21572 64.8361 1.09377C63.7125 0.685156 62.5647 0.860279 61.4683 1.19261C58.6132 2.05319 55.9621 4.04369 52.8694 3.6368C52.8168 3.62871 52.7636 3.65703 52.7446 3.71136C52.7243 3.768 52.7544 3.83216 52.8128 3.85123C53.3081 4.03675 53.8288 4.14136 54.3565 4.17662C55.9309 4.27718 57.5046 3.79921 58.9582 3.30274C60.6407 2.77622 62.741 1.70468 64.4049 2.28379C66.4931 2.88603 68.4345 4.33556 69.0876 6.47922C69.1483 6.67457 69.1997 6.87396 69.2378 7.07625C68.9067 7.22421 68.5963 7.4184 68.3154 7.65999C67.9733 7.96631 67.7057 8.37377 67.6109 8.81476C67.6016 8.86215 67.623 8.91243 67.6681 8.93555C67.7236 8.96503 67.7912 8.9448 67.8213 8.88932C68.0114 8.53618 68.2975 8.26801 68.6275 8.07208C68.8483 7.94782 69.0818 7.84725 69.3245 7.77096C69.4852 7.71952 69.6476 7.68022 69.8135 7.64901C71.2555 7.38026 72.8732 7.85939 73.8598 8.9055C74.5435 9.63951 74.9313 10.6544 74.8585 11.6543C74.8163 12.1253 74.6765 12.5813 74.5216 13.0235C74.0523 14.3493 73.0645 15.4827 71.6872 15.826C70.8567 16.0416 69.9799 16.0838 69.1292 15.952C67.519 15.7416 66.4278 14.8545 65.2216 14.0031C66.3139 13.8557 67.471 13.3003 67.7629 12.1796C67.7929 12.0617 67.6311 11.9883 67.5606 12.0878C67.1144 12.69 66.4752 12.9911 65.7672 13.1593C65.2828 13.2772 64.7875 13.3073 64.2963 13.3916H64.2945C64.1344 13.294 63.9703 13.2003 63.801 13.1107C63.3923 12.8986 62.9745 12.72 62.5468 12.5692C63.6247 12.123 64.5783 11.2491 65.0413 10.2649C65.2909 9.75626 65.4603 9.16616 65.3505 8.59744C65.3262 8.46972 65.1349 8.48474 65.1291 8.61247C65.0869 9.11992 64.8552 9.58402 64.5691 9.99669C63.8119 11.1347 62.5676 11.8647 61.2446 12.1363C61.2053 12.1473 61.1631 12.1554 61.1238 12.1646C60.6256 12.0548 60.1211 11.9733 59.6136 11.9109C59.6529 11.8837 59.6922 11.8566 59.7315 11.8282C60.4291 11.322 60.9892 10.5585 61.1452 9.71291C61.1533 9.66552 61.1302 9.61524 61.0857 9.59212C61.0285 9.5638 60.9597 9.58807 60.9337 9.64529C60.8198 9.87012 60.6869 10.0793 60.536 10.273C60.0858 10.8365 59.468 11.2543 58.79 11.4919C57.0625 12.1051 54.8547 11.3803 53.5427 10.1851C52.8411 9.50542 52.4012 8.57028 51.8817 7.71837C51.8169 7.61376 51.658 7.67328 51.673 7.79292C51.7458 8.31771 51.8626 8.83383 52.0435 9.34764C52.4082 10.4255 53.0694 11.1948 53.9675 11.7416C53.5942 11.7728 53.2237 11.8242 52.859 11.9028C51.8915 12.0999 50.898 12.4848 49.9374 12.2872C47.7718 12.0831 46.4569 8.60149 46.4477 6.69769C46.4205 5.07246 47.5152 3.50214 49.0768 3.00162C51.0581 2.34911 53.2208 2.90279 55.2945 2.57567C56.2482 2.45083 57.1371 2.03123 58.0271 1.71508C58.156 1.67058 58.1057 1.47754 57.9687 1.50239C57.0515 1.69485 56.1707 2.01389 55.2373 2.05434C53.8531 2.13468 52.4325 1.87113 51.0217 1.8509C50.0299 1.82894 48.978 1.94858 48.0648 2.38956C46.502 3.11722 45.4362 4.74822 45.3594 6.47402C45.2657 8.21079 46.0252 10.4146 47.0811 11.797C47.7203 12.6426 48.674 13.3587 49.7802 13.4772C50.0674 13.5367 50.3553 13.5569 50.635 13.5517C50.5084 14.8961 50.3524 16.2392 50.1408 17.5709C50.0189 18.3685 49.8178 19.3117 49.6172 20.096L50.6893 19.8746C51.7245 19.6671 52.8503 19.6521 53.9242 19.6822C56.8631 19.803 61.1198 20.4011 63.5715 22.0634C63.6177 22.0975 63.683 22.0905 63.7206 22.0472C63.7599 21.9998 63.7547 21.9304 63.7085 21.8894C61.3354 19.9492 57.0313 18.9505 54.0109 18.5546C53.1381 18.4528 52.2793 18.3794 51.4043 18.3985C51.6089 16.7444 51.6961 15.0833 51.7586 13.4188V13.4171C52.4122 13.2882 53.0214 13.105 53.6866 13.0223C54.4831 12.9246 55.2957 12.9466 56.1112 12.9651C57.3445 12.998 58.5987 13.0466 59.8049 13.2275C61.1903 13.435 62.5265 13.8135 63.7166 14.5406C64.4101 14.9683 65.0424 15.4769 65.729 15.93C65.3002 17.1715 64.995 18.48 64.6558 19.7498C63.5293 19.051 62.3069 18.5262 61.0504 18.1147C59.5032 17.6275 57.8537 17.3345 56.2372 17.5501C56.1834 17.557 56.1412 17.6061 56.1424 17.6628C56.1435 17.724 56.1938 17.7732 56.2551 17.7714C57.0405 17.7552 57.8196 17.8703 58.5739 18.0604C60.4494 18.5476 62.2121 19.4527 63.7617 20.6023C64.0657 20.83 64.3546 21.0727 64.6176 21.3224L65.4129 21.9616C65.4863 21.7027 65.7209 20.9155 65.7834 20.6659C66.1209 19.34 66.4104 17.887 66.8156 16.5531C68.4183 17.3143 70.3019 17.4853 72.0126 17.0074C74.2528 16.4011 75.5515 14.3655 75.941 12.1866C76.2705 10.2649 75.2313 8.21888 73.5217 7.30166Z" fill="black"/>
</svg>
