<svg width="30" height="31" viewBox="0 0 30 31" fill="none" xmlns="http://www.w3.org/2000/svg">
<rect y="0.0126953" width="30" height="30" rx="15" fill="#3BB6FC"/>
<path d="M16.6151 10.1358C17.2126 9.65596 17.828 9.01119 18.1401 8.22678C18.303 7.81747 18.2503 7.35271 17.9998 6.98379C17.7417 6.60322 17.3139 6.37598 16.856 6.37598H12.7492C12.2913 6.37598 11.8635 6.60322 11.6054 6.98379C11.3549 7.35271 11.3029 7.81747 11.4651 8.22678C11.7772 9.0105 12.3926 9.65596 12.9901 10.1358C9.80324 11.3185 7.27344 15.3829 7.27344 18.6964C7.27344 20.9613 9.11535 22.8033 11.3803 22.8033H18.225C20.4899 22.8033 22.3318 20.9613 22.3318 18.6964C22.3318 15.3829 19.802 11.3185 16.6151 10.1358ZM16.8677 7.72096C16.5145 8.60872 15.4344 9.3589 14.8012 9.71277C14.1695 9.36163 13.0935 8.61761 12.7485 7.74492L16.8677 7.72096ZM18.2243 21.4343H11.3803C9.87032 21.4343 8.64238 20.2064 8.64238 18.6964C8.64238 15.1078 11.8662 11.1673 14.8026 11.1673C17.739 11.1673 20.9628 15.1078 20.9628 18.6964C20.9628 20.2064 19.7342 21.4343 18.2243 21.4343ZM14.8019 21.4343C14.4241 21.4343 14.1175 21.1277 14.1175 20.7498V20.0654H13.934C13.203 20.0654 12.522 19.6725 12.1558 19.0394C11.9668 18.7122 12.0784 18.294 12.4056 18.1044C12.7314 17.9148 13.151 18.0263 13.3406 18.3542C13.4624 18.565 13.6903 18.6964 13.934 18.6964H15.4864C15.8635 18.6964 16.1709 18.3891 16.1709 18.012C16.1709 17.7532 15.9854 17.5342 15.7301 17.4918L13.6479 17.1447C12.73 16.9921 12.0634 16.205 12.0634 15.2741C12.0634 14.142 12.9847 13.2207 14.1168 13.2207V12.5362C14.1168 12.1584 14.4234 11.8517 14.8012 11.8517C15.1791 11.8517 15.4857 12.1584 15.4857 12.5362V13.2207H15.6691C16.3995 13.2207 17.0812 13.6142 17.4474 14.2474C17.6363 14.5746 17.5247 14.9928 17.1976 15.1824C16.8711 15.372 16.4522 15.2604 16.2626 14.9325C16.1401 14.721 15.9128 14.5903 15.6691 14.5903H14.1168C13.7396 14.5903 13.4323 14.8976 13.4323 15.2748C13.4323 15.5335 13.6178 15.7525 13.8731 15.795L15.9553 16.142C16.8731 16.2946 17.5398 17.0818 17.5398 18.0126C17.5398 19.1448 16.6185 20.0661 15.4864 20.0661V20.7505C15.4864 21.1284 15.1797 21.4343 14.8019 21.4343Z" fill="white"/>
</svg>
