<svg width="26" height="23" viewBox="0 0 26 23" fill="none" xmlns="http://www.w3.org/2000/svg"><path d="m15.74 9.268-5.48 4.644c-.705-.596-1.138-1.413-1.138-2.322 0-1.817 1.733-3.285 3.878-3.285 1.072 0 2.037.367 2.74.963" stroke="#000" stroke-opacity=".65" stroke-width="1.5" stroke-linecap="round" stroke-linejoin="round"/><path d="M19.305 5.873C17.409 4.662 15.242 4.001 13 4.001c-3.824 0-7.388 1.909-9.87 5.213-.974 1.294-.974 3.47 0 4.763a14 14 0 0 0 2.936 2.91m3.056 1.615c1.235.44 2.545.68 3.878.68 3.824 0 7.388-1.91 9.87-5.214.974-1.294.974-3.47 0-4.763a15 15 0 0 0-1.15-1.35" stroke="#000" stroke-opacity=".65" stroke-width="1.5" stroke-linecap="round" stroke-linejoin="round"/><path d="M16.803 12.233c-.282 1.294-1.528 2.35-3.055 2.589" stroke="#000" stroke-opacity=".65" stroke-width="1.5" stroke-linecap="round" stroke-linejoin="round"/></svg>