<svg width="45" height="45" viewBox="0 0 45 45" fill="none" xmlns="http://www.w3.org/2000/svg">
<rect width="45" height="45" rx="22.5" fill="#EAF7FF"/>
<path d="M32.8284 19.6536C32.8284 20.814 32.3675 21.9268 31.547 22.7472C30.7265 23.5677 29.6137 24.0286 28.4534 24.0286C27.3875 24.0352 26.3573 23.6454 25.5628 22.9349C25.0688 23.8598 24.3261 24.6283 23.4186 25.1535C22.511 25.6787 21.4748 25.9398 20.4267 25.9073C19.3786 25.8748 18.3605 25.55 17.4873 24.9696C16.614 24.3891 15.9204 23.5762 15.4847 22.6224C15.0549 22.9377 14.5332 23.1025 14.0003 23.0911C13.6309 23.0911 13.2652 23.0184 12.924 22.8771C12.5827 22.7357 12.2727 22.5285 12.0115 22.2674C11.7504 22.0062 11.5432 21.6962 11.4019 21.3549C11.2605 21.0137 11.1878 20.648 11.1878 20.2786C11.1798 19.7255 11.3399 19.1829 11.6467 18.7226C11.9536 18.2623 12.3929 17.9059 12.9065 17.7005C12.7736 17.2711 12.7206 16.8209 12.7503 16.3724C12.7572 15.3864 13.0648 14.4259 13.6322 13.6194C14.1995 12.8129 14.9995 12.1987 15.9252 11.859C16.8509 11.5193 17.8582 11.4702 18.8126 11.7183C19.7669 11.9664 20.6228 12.4999 21.2659 13.2474C22.1741 12.5871 23.2681 12.2316 24.3909 12.2318C25.3741 12.2312 26.3342 12.5299 27.1435 13.0881C27.9529 13.6463 28.5733 14.4376 28.9222 15.3568C29.9928 15.4545 30.9878 15.95 31.711 16.7455C32.4342 17.5409 32.8329 18.5786 32.8284 19.6536Z" stroke="black" stroke-width="2" stroke-linecap="round" stroke-linejoin="round"/>
<path d="M28.4536 24.0287C28.4536 24.0287 24.6255 24.7318 24.6255 33.4037H20.6411C20.6411 33.4037 20.8755 27.3881 16.9692 24.4974" stroke="black" stroke-width="2" stroke-linecap="round" stroke-linejoin="round"/>
</svg>
