<svg width="45" height="45" viewBox="0 0 45 45" fill="none" xmlns="http://www.w3.org/2000/svg">
<rect width="45" height="45" rx="22.5" fill="#EAF7FF"/>
<path d="M34.0625 30.3126V32.1094H11.5625V30.3126C11.5785 27.8146 12.4312 25.394 13.9844 23.4376C15.0234 22.0875 16.3614 20.9967 17.8932 20.2512C19.4251 19.5056 21.1089 19.1255 22.8125 19.1407C24.5337 19.1346 26.2331 19.5262 27.778 20.2851C29.3229 21.044 30.6716 22.1496 31.7188 23.5157C33.2173 25.4667 34.04 27.8525 34.0625 30.3126Z" stroke="black" stroke-width="2" stroke-linecap="round" stroke-linejoin="round"/>
<path d="M32.9685 20.5469C32.9691 21.1001 32.8587 21.6479 32.644 22.1578C32.4294 22.6677 32.1146 23.1294 31.7185 23.5156C30.6713 22.1496 29.3227 21.044 27.7778 20.2851C26.2329 19.5261 24.5335 19.1345 22.8123 19.1406C21.1087 19.1254 19.4248 19.5055 17.893 20.2511C16.3612 20.9967 15.0232 22.0874 13.9841 23.4375C13.2516 22.6507 12.8345 21.6217 12.8123 20.5469C12.8019 20.0068 12.8993 19.4702 13.0988 18.9682C13.2983 18.4663 13.5959 18.0092 13.9742 17.6236C14.3525 17.2381 14.8038 16.9318 15.3019 16.7228C15.7999 16.5138 16.3346 16.4062 16.8748 16.4063C17.5616 16.4205 18.2336 16.6087 18.8279 16.9532C18.8878 15.9168 19.3421 14.9427 20.0976 14.2308C20.853 13.519 21.8524 13.1233 22.8904 13.125C23.923 13.1416 24.9121 13.5433 25.6637 14.2516C26.4153 14.9598 26.8751 15.9234 26.9529 16.9532C27.5472 16.6087 28.2192 16.4205 28.906 16.4063C29.4462 16.4062 29.9809 16.5138 30.4789 16.7228C30.977 16.9318 31.4283 17.2381 31.8066 17.6236C32.1849 18.0092 32.4825 18.4663 32.682 18.9682C32.8815 19.4702 32.9789 20.0068 32.9685 20.5469Z" stroke="black" stroke-width="2" stroke-linecap="round" stroke-linejoin="round"/>
<path d="M17.7344 25.3906L18.75 24.375" stroke="black" stroke-width="2" stroke-linecap="round" stroke-linejoin="round"/>
<path d="M22.7344 27.1094L23.75 28.2031" stroke="black" stroke-width="2" stroke-linecap="round" stroke-linejoin="round"/>
<path d="M26.4062 24.9218L26.9531 24.375" stroke="black" stroke-width="2" stroke-linecap="round" stroke-linejoin="round"/>
</svg>
