<svg width="45" height="45" viewBox="0 0 45 45" fill="none" xmlns="http://www.w3.org/2000/svg">
<rect width="45" height="45" rx="22.5" fill="#EAF7FF"/>
<path d="M13.8301 27.9688H31.4863V29.1406C31.4863 29.9694 31.1571 30.7643 30.571 31.3503C29.985 31.9364 29.1901 32.2656 28.3613 32.2656H16.9551C16.1263 32.2656 15.3314 31.9364 14.7454 31.3503C14.1593 30.7643 13.8301 29.9694 13.8301 29.1406V27.9688Z" stroke="black" stroke-width="2" stroke-linecap="round" stroke-linejoin="round"/>
<path d="M29.3769 23.2032H31.4082C31.7225 23.1927 32.0356 23.2456 32.3291 23.3587C32.6225 23.4717 32.8902 23.6427 33.1162 23.8614C33.3422 24.0801 33.5218 24.342 33.6444 24.6316C33.7671 24.9212 33.8302 25.2325 33.83 25.5469C33.83 26.1892 33.5749 26.8053 33.1207 27.2595C32.6665 27.7136 32.0505 27.9688 31.4082 27.9688H13.9081C13.5937 27.969 13.2824 27.9059 12.9928 27.7832C12.7032 27.6606 12.4413 27.4809 12.2226 27.2549C12.0039 27.029 11.8329 26.7613 11.7199 26.4679C11.6068 26.1744 11.5539 25.8612 11.5644 25.5469C11.5535 25.2362 11.6066 24.9266 11.7206 24.6373C11.8345 24.348 12.0067 24.0852 12.2266 23.8654C12.4464 23.6455 12.7092 23.4733 12.9985 23.3594C13.2878 23.2454 13.5974 23.1923 13.9081 23.2032H20.7831" stroke="black" stroke-width="2" stroke-linecap="round" stroke-linejoin="round"/>
<path d="M33.8302 21.6406C33.8243 22.0528 33.6558 22.4459 33.3615 22.7344C33.2245 22.8877 33.0556 23.0092 32.8666 23.0902C32.6776 23.1711 32.4732 23.2097 32.2677 23.2031H28.2052L25.549 26.25L22.8927 23.2031H13.049C12.8473 23.2034 12.6476 23.1626 12.4623 23.0832C12.2769 23.0037 12.1096 22.8873 11.9707 22.7411C11.8318 22.5949 11.7242 22.4219 11.6543 22.2327C11.5845 22.0435 11.5539 21.842 11.5646 21.6406C11.5539 21.4392 11.5845 21.2378 11.6543 21.0486C11.7242 20.8594 11.8318 20.6864 11.9707 20.5401C12.1096 20.3939 12.2769 20.2775 12.4623 20.1981C12.6476 20.1187 12.8473 20.0778 13.049 20.0781H32.2677C32.6821 20.0781 33.0795 20.2427 33.3726 20.5358C33.6656 20.8288 33.8302 21.2262 33.8302 21.6406Z" stroke="black" stroke-width="2" stroke-linecap="round" stroke-linejoin="round"/>
<path d="M20.5488 13.125H24.8457C26.6276 13.125 28.3365 13.8329 29.5966 15.0929C30.8566 16.3529 31.5645 18.0618 31.5645 19.8438H13.8301C13.8301 18.0618 14.5379 16.3529 15.7979 15.0929C17.0579 13.8329 18.7669 13.125 20.5488 13.125Z" stroke="black" stroke-width="2" stroke-linecap="round" stroke-linejoin="round"/>
<path d="M18.2832 16.6406L19.2207 17.6563" stroke="black" stroke-width="2" stroke-linecap="round" stroke-linejoin="round"/>
<path d="M26.7207 16.25L27.7363 17.3437" stroke="black" stroke-width="2" stroke-linecap="round" stroke-linejoin="round"/>
<path d="M22.0332 16.7188L23.1269 15.7031" stroke="black" stroke-width="2" stroke-linecap="round" stroke-linejoin="round"/>
</svg>
