<svg width="26" height="26" viewBox="0 0 26 26" fill="none" xmlns="http://www.w3.org/2000/svg">
<rect y="0.0224609" width="25.17" height="25.1826" rx="12.585" fill="#3BB6FC"/>
<mask id="path-2-inside-1_2001_11920" fill="white">
<path d="M15.0295 16.3924L11.1869 12.5394L15.0295 8.68651L13.8465 7.50293L8.8125 12.5394L13.8465 17.576L15.0295 16.3924Z"/>
</mask>
<path d="M15.0295 16.3924L11.1869 12.5394L15.0295 8.68651L13.8465 7.50293L8.8125 12.5394L13.8465 17.576L15.0295 16.3924Z" fill="#3BB6FC"/>
<path d="M15.0295 16.3924L16.4441 17.8062C17.224 17.0259 17.2247 15.7613 16.4456 14.9801L15.0295 16.3924ZM11.1869 12.5394L9.77076 11.1271C8.99224 11.9077 8.99224 13.1712 9.77076 13.9518L11.1869 12.5394ZM15.0295 8.68651L16.4456 10.0988C17.2247 9.31761 17.224 8.05302 16.4441 7.27265L15.0295 8.68651ZM13.8465 7.50293L15.2611 6.08907C14.886 5.71378 14.3771 5.50293 13.8465 5.50293C13.3159 5.50293 12.807 5.71378 12.4319 6.08907L13.8465 7.50293ZM8.8125 12.5394L7.39793 11.1256C6.61736 11.9066 6.61736 13.1723 7.39793 13.9533L8.8125 12.5394ZM13.8465 17.576L12.4319 18.9898C12.807 19.3651 13.3159 19.576 13.8465 19.576C14.3771 19.576 14.886 19.3651 15.2611 18.9898L13.8465 17.576ZM16.4456 14.9801L12.603 11.1271L9.77076 13.9518L13.6134 17.8047L16.4456 14.9801ZM12.603 13.9518L16.4456 10.0988L13.6134 7.27419L9.77076 11.1271L12.603 13.9518ZM16.4441 7.27265L15.2611 6.08907L12.4319 8.91679L13.6149 10.1004L16.4441 7.27265ZM12.4319 6.08907L7.39793 11.1256L10.2271 13.9533L15.2611 8.91679L12.4319 6.08907ZM7.39793 13.9533L12.4319 18.9898L15.2611 16.1621L10.2271 11.1256L7.39793 13.9533ZM15.2611 18.9898L16.4441 17.8062L13.6149 14.9785L12.4319 16.1621L15.2611 18.9898Z" fill="white" mask="url(#path-2-inside-1_2001_11920)"/>
</svg>
