<svg width="17" height="17" viewBox="0 0 17 17" fill="none" xmlns="http://www.w3.org/2000/svg">
<g clip-path="url(#clip0_2447_1640)">
<path d="M12.7799 1.93294H12.1133V1.26628C12.1133 1.08947 12.043 0.919896 11.918 0.794872C11.793 0.669847 11.6234 0.599609 11.4466 0.599609C11.2698 0.599609 11.1002 0.669847 10.9752 0.794872C10.8502 0.919896 10.7799 1.08947 10.7799 1.26628V1.93294H5.44661V1.26628C5.44661 1.08947 5.37638 0.919896 5.25135 0.794872C5.12633 0.669847 4.95676 0.599609 4.77995 0.599609C4.60314 0.599609 4.43357 0.669847 4.30854 0.794872C4.18352 0.919896 4.11328 1.08947 4.11328 1.26628V1.93294H3.44661C2.56288 1.934 1.71565 2.28553 1.09076 2.91042C0.465869 3.53531 0.11434 4.38255 0.113281 5.26628L0.113281 13.2663C0.11434 14.15 0.465869 14.9972 1.09076 15.6221C1.71565 16.247 2.56288 16.5986 3.44661 16.5996H12.7799C13.6637 16.5986 14.5109 16.247 15.1358 15.6221C15.7607 14.9972 16.1122 14.15 16.1133 13.2663V5.26628C16.1122 4.38255 15.7607 3.53531 15.1358 2.91042C14.5109 2.28553 13.6637 1.934 12.7799 1.93294ZM1.44661 5.26628C1.44661 4.73584 1.65733 4.22714 2.0324 3.85206C2.40747 3.47699 2.91618 3.26628 3.44661 3.26628H12.7799C13.3104 3.26628 13.8191 3.47699 14.1942 3.85206C14.5692 4.22714 14.7799 4.73584 14.7799 5.26628V5.93294H1.44661V5.26628ZM12.7799 15.2663H3.44661C2.91618 15.2663 2.40747 15.0556 2.0324 14.6805C1.65733 14.3054 1.44661 13.7967 1.44661 13.2663V7.26628H14.7799V13.2663C14.7799 13.7967 14.5692 14.3054 14.1942 14.6805C13.8191 15.0556 13.3104 15.2663 12.7799 15.2663Z" fill="#515151"/>
<path d="M8.11328 11.5996C8.66557 11.5996 9.11328 11.1519 9.11328 10.5996C9.11328 10.0473 8.66557 9.59961 8.11328 9.59961C7.561 9.59961 7.11328 10.0473 7.11328 10.5996C7.11328 11.1519 7.561 11.5996 8.11328 11.5996Z" fill="#515151"/>
<path d="M4.78125 11.5996C5.33353 11.5996 5.78125 11.1519 5.78125 10.5996C5.78125 10.0473 5.33353 9.59961 4.78125 9.59961C4.22897 9.59961 3.78125 10.0473 3.78125 10.5996C3.78125 11.1519 4.22897 11.5996 4.78125 11.5996Z" fill="#515151"/>
<path d="M11.4453 11.5996C11.9976 11.5996 12.4453 11.1519 12.4453 10.5996C12.4453 10.0473 11.9976 9.59961 11.4453 9.59961C10.893 9.59961 10.4453 10.0473 10.4453 10.5996C10.4453 11.1519 10.893 11.5996 11.4453 11.5996Z" fill="#515151"/>
</g>
<defs>
<clipPath id="clip0_2447_1640">
<rect width="16" height="16" fill="white" transform="translate(0.113281 0.599609)"/>
</clipPath>
</defs>
</svg>
