<svg width="45" height="45" viewBox="0 0 45 45" fill="none" xmlns="http://www.w3.org/2000/svg">
<rect x="0.5" y="0.5" width="44" height="44" rx="11.5" fill="white"/>
<rect x="0.5" y="0.5" width="44" height="44" rx="11.5" stroke="#D7D7D7"/>
<path d="M22.5 32C21.2128 32 19.9983 31.4348 19.1687 30.4491C17.9495 30.5893 16.6931 30.1277 15.7827 29.2181C14.8731 28.3077 14.4139 27.0489 14.524 25.7648C13.5652 25.0017 13 23.7873 13 22.5C13 21.2128 13.5652 19.9983 14.5517 19.1687C14.4131 17.9519 14.8723 16.6931 15.7827 15.7827C16.6931 14.8715 17.9495 14.4131 19.2352 14.524C19.9983 13.566 21.2128 13 22.5 13C23.7873 13 25.0017 13.5652 25.8313 14.5509C27.0521 14.4115 28.3069 14.8723 29.2173 15.7819C30.1269 16.6923 30.5861 17.9511 30.476 19.2352C31.4348 19.9983 32 21.2128 32 22.5C32 23.7873 31.4348 25.0017 30.4483 25.8313C30.5869 27.0481 30.1277 28.3069 29.2173 29.2173C28.3061 30.1277 27.0473 30.5861 25.7648 30.476C25.0017 31.434 23.7873 32 22.5 32ZM19.2328 28.8935C19.6769 28.8935 20.0886 29.0843 20.3791 29.4287C20.908 30.0565 21.6806 30.4167 22.5 30.4167C23.3194 30.4167 24.092 30.0565 24.6209 29.4287C24.9399 29.0495 25.4046 28.8579 25.9002 28.8983C26.7188 28.9671 27.5184 28.6766 28.0979 28.0971C28.6766 27.5184 28.9687 26.7172 28.899 25.8994C28.8563 25.4054 29.0495 24.9391 29.4295 24.6193C30.0565 24.0913 30.4167 23.3178 30.4167 22.4992C30.4167 21.6806 30.0565 20.9072 29.4295 20.3791C29.0503 20.0601 28.8563 19.593 28.899 19.099C28.9687 18.2812 28.6774 17.48 28.0979 16.9013C27.5184 16.3226 26.714 16.0337 25.901 16.1002C25.4054 16.1453 24.9399 15.949 24.6209 15.5705C24.092 14.9428 23.3194 14.5825 22.5 14.5825C21.6806 14.5825 20.908 14.9428 20.3791 15.5705C20.0593 15.9497 19.593 16.1398 19.0998 16.101C18.2772 16.0297 17.4816 16.3226 16.9021 16.9021C16.3234 17.4808 16.0313 18.282 16.101 19.0998C16.1437 19.5938 15.9505 20.0601 15.5705 20.3799C14.9435 20.908 14.5833 21.6814 14.5833 22.5C14.5833 23.3186 14.9435 24.092 15.5705 24.6201C15.9497 24.9391 16.1437 25.4062 16.101 25.9002C16.0313 26.718 16.3226 27.5192 16.9021 28.0979C17.4816 28.6774 18.2899 28.9671 19.099 28.899C19.1441 28.8951 19.1885 28.8935 19.2328 28.8935ZM20.125 19.3333C19.688 19.3333 19.3333 19.688 19.3333 20.125C19.3333 20.562 19.688 20.9167 20.125 20.9167C20.562 20.9167 20.9167 20.562 20.9167 20.125C20.9167 19.688 20.562 19.3333 20.125 19.3333ZM24.875 24.0833C24.438 24.0833 24.0833 24.438 24.0833 24.875C24.0833 25.312 24.438 25.6667 24.875 25.6667C25.312 25.6667 25.6667 25.312 25.6667 24.875C25.6667 24.438 25.312 24.0833 24.875 24.0833ZM21.5753 25.3144L24.742 20.5644C24.985 20.201 24.8869 19.7086 24.5227 19.4663C24.1578 19.2225 23.6669 19.3222 23.4247 19.6856L20.258 24.4356C20.015 24.799 20.1131 25.2914 20.4773 25.5337C20.6127 25.6239 20.7647 25.6667 20.9159 25.6667C21.1716 25.6667 21.4233 25.5432 21.5753 25.3144Z" fill="#3BB6FC"/>
</svg>
