<svg width="400" height="420" viewBox="0 0 400 420" fill="none" xmlns="http://www.w3.org/2000/svg"><g clip-path="url(#a)"><path d="M366.302 290.264h26.118v-11.036h-26.118zm14.58 13.916 13.167 -0.276 6.489 -0.109c2.16 -0.049 4.311 0 6.46 -0.06l-0.444 0.445v-11.036l0.493 0.493 -13.058 -0.06c-4.349 0 -8.709 -0.118 -13.058 -0.167l0.267 -0.265c0 1.804 -0.08 3.618 -0.129 5.453zm0 0 -0.178 -5.415c-0.049 -1.835 -0.118 -3.7 -0.127 -5.573v-0.345h0.276c4.349 -0.06 8.709 -0.158 13.058 -0.167l13.058 -0.06h0.493v0.493l-0.058 11.036v0.444h-0.435c-2.2 0 -4.409 0 -6.609 -0.049l-6.567 -0.107zm-192.364 -108.402 13.176 -0.276 6.48 -0.109c2.16 -0.049 4.311 0 6.46 -0.049l-0.444 0.435 -0.049 -11.036 0.493 0.493 -13.058 -0.06c-4.349 0 -8.709 -0.107 -13.058 -0.167l0.267 -0.265c0 1.804 -0.08 3.618 -0.129 5.464zm0 0 -0.138 -5.504c-0.049 -1.835 -0.109 -3.698 -0.127 -5.573v-0.267h0.275c4.351 -0.049 8.709 -0.156 13.06 -0.167l13.058 -0.058h0.493v0.493l-0.049 11.036v0.453h-0.435c-2.2 0 -4.409 0 -6.598 -0.058l-6.578 -0.109zm14.567 13.916h26.116v-11.036h-26.116zm-29.362 0 13.176 -0.276 6.491 -0.109c2.16 -0.049 4.3 0 6.449 -0.049l-0.433 0.435 -0.06 -11.036 0.493 0.493 -13.058 -0.06c-4.349 0 -8.698 -0.107 -13.058 -0.167l0.276 -0.265c0 1.804 -0.089 3.62 -0.127 5.464zm0 0 -0.138 -5.464c0 -1.835 -0.109 -3.7 -0.127 -5.573v-0.267h0.265c4.36 0 8.709 -0.156 13.058 -0.167l13.058 -0.058h0.504v0.493l-0.049 11.036v0.444h-0.444c-2.2 0 -4.409 0 -6.598 -0.06l-6.569 -0.107zm55.005 -139.785h26.116v-11.036h-26.116zM5.267 304.18l13.176 -0.276 6.491 -0.109c2.149 -0.049 4.3 0 6.449 -0.06l-0.435 0.445 -0.058 -11.036 0.493 0.493 -13.058 -0.06c-4.349 0 -8.709 -0.118 -13.058 -0.167l0.265 -0.265c0 1.804 -0.078 3.618 -0.127 5.453zm0 0 -0.138 -5.415c-0.049 -1.835 -0.109 -3.7 -0.127 -5.573v-0.345h0.265c4.349 -0.06 8.709 -0.158 13.058 -0.167l13.058 -0.06h0.493v11.973h-0.444c-2.2 0 -4.407 0 -6.598 -0.049l-6.569 -0.107zM19.836 24.776l13.176 -0.276 6.489 -0.109c2.16 -0.047 4.3 0 6.451 -0.058l-0.435 0.444 -0.06 -11.045 0.495 0.493 -13.058 -0.06c-4.351 0 -8.7 -0.118 -13.058 -0.167l0.275 -0.265c0 1.804 -0.087 3.618 -0.138 5.464zm0 0 -0.109 -5.464c0 -1.835 -0.109 -3.698 -0.127 -5.573v-0.265h0.265c4.358 -0.049 8.709 -0.158 13.058 -0.167l13.058 -0.06h0.504v0.484l-0.129 11.045v0.444h-0.444c-2.2 0 -4.409 0 -6.6 -0.058l-6.567 -0.109zm-14.569 13.916H31.382v-11.036H5.267zm375.615 -13.916 13.167 -0.276 6.489 -0.109c2.16 -0.047 4.311 0 6.46 -0.058l-0.444 0.444v-11.036l0.493 0.493 -13.058 -0.058c-4.349 0 -8.709 -0.118 -13.058 -0.167l0.267 -0.267c0 1.805 -0.08 3.62 -0.129 5.464zm0 0 -0.178 -5.464c-0.049 -1.835 -0.118 -3.698 -0.127 -5.573v-0.265h0.276c4.349 -0.049 8.709 -0.158 13.058 -0.167l13.058 -0.06h0.493v0.484l-0.029 11.045v0.444h-0.435c-2.198 0 -4.409 0 -6.607 -0.058l-6.569 -0.109zM126.509 339.962H55.549v78.576h70.964z" fill="#EBEBEB"/><path d="M18.92 418.549h36.64v-78.587H18.92z" fill="#DBDBDB"/><path d="M21.433 413.173q4.082 -8.384 8.067 -16.767l7.978 -16.993 7.891 -16.975a1041.818 1041.818 0 0 0 7.733 -17.062 1578.182 1578.182 0 0 0 -8.067 16.816l-7.949 16.904 -7.891 16.975a1343.636 1343.636 0 0 0 -7.764 17.102" fill="#EBEBEB"/><path d="M21.433 345.376a1661.818 1661.818 0 0 0 7.733 17.062l7.891 16.975 7.949 16.905a1507.273 1507.273 0 0 0 8.067 16.765 1812.727 1812.727 0 0 0 -7.733 -17.062l-7.891 -16.975 -7.949 -16.904a2429.091 2429.091 0 0 0 -8.067 -16.767m105.076 -124.093H55.549v73.162h70.964z" fill="#EBEBEB"/><path d="M18.92 294.455h36.64v-73.171H18.92zm66.089 -56.187h2.633l0.642 -1.313 0.907 1.313 1.222 -2.693 1.164 2.693h4.835l0.551 -1.795 0.513 1.795h0.987v-16.984h-13.455z" fill="#DBDBDB"/><path d="M21.433 289.789a1172.727 1172.727 0 0 0 8.067 -15.682l7.949 -15.78 7.891 -15.78a823.636 823.636 0 0 0 7.733 -15.889 1460 1460 0 0 0 -8.067 15.662l-7.951 15.731 -7.891 15.78q-3.904 7.982 -7.731 15.958" fill="#EBEBEB"/><path d="M21.433 226.698a1543.636 1543.636 0 0 0 7.733 15.849l7.891 15.78 7.949 15.78a1241.818 1241.818 0 0 0 8.067 15.662 1663.636 1663.636 0 0 0 -7.733 -15.887l-7.891 -15.782 -7.949 -15.731a1674.545 1674.545 0 0 0 -8.067 -15.671" fill="#EBEBEB"/><path d="M60.224 289.907h7.88v-7.88h-7.88z" fill="#fff"/><path d="M121.787 294.455h-70.964v45.507h70.964z" fill="#DBDBDB"/><path d="M14.184 339.962h36.64V294.455H14.184z" fill="#C7C7C7"/><path d="M80.282 311.438h2.633l0.642 -1.311 0.907 1.311 1.222 -2.693 1.164 2.693h4.833l0.544 -1.795 0.522 1.795h0.987v-16.984h-13.455z" fill="#fff"/><path d="M16.709 337.229a694.545 694.545 0 0 0 8.067 -9.951l7.949 -10 7.891 -10.051a1265.455 1265.455 0 0 0 7.722 -10.1 801.818 801.818 0 0 0 -8.067 9.953l-7.949 10.009 -7.891 10.042a1876.364 1876.364 0 0 0 -7.722 10.098" fill="#DBDBDB"/><path d="M16.709 297.158a1150.909 1150.909 0 0 0 7.733 10.098l7.891 10.051 7.949 10a509.091 509.091 0 0 0 8.047 9.922q-3.818 -5.067 -7.722 -10.098l-7.891 -10.04 -7.949 -10.011a1394.545 1394.545 0 0 0 -8.058 -9.922m381.375 52.647h-70.962v68.744h70.962z" fill="#DBDBDB"/><path d="M290.489 418.549h36.64v-68.744h-36.64z" fill="#C7C7C7"/><path d="M356.578 366.789h2.633l0.642 -1.313 0.907 1.313 1.224 -2.693 1.164 2.693h4.833l0.551 -1.805 0.515 1.805h0.985v-16.984h-13.453z" fill="#fff"/><path d="M293.005 414.456a1467.273 1467.273 0 0 0 8.067 -15.031l7.951 -15.111 7.889 -15.169a874.545 874.545 0 0 0 7.724 -15.247 1876.364 1876.364 0 0 0 -8.069 15.031l-7.949 15.1 -7.84 15.178a2852.727 2852.727 0 0 0 -7.773 15.249" fill="#DBDBDB"/><path d="M293.005 353.898q3.836 7.644 7.733 15.247l7.84 15.169 7.951 15.111a1467.273 1467.273 0 0 0 8.067 15.031 1360 1360 0 0 0 -7.724 -15.249l-7.889 -15.178 -7.949 -15.1a1112.727 1112.727 0 0 0 -8.029 -15.031" fill="#DBDBDB"/><path d="M274.698 9.785v167.765h115.453V9.787zm111.193 163.455h-106.933V13.998h106.933z" fill="#EBEBEB"/><path d="M385.891 13.996h-106.933v159.245h106.933z" fill="#fff"/><path d="M278.96 100.682h106.933V96.418h-106.933z" fill="#EBEBEB"/><path d="M266.849 189.722h131.145v-12.229h-131.145z" fill="#DBDBDB"/><path d="m270.329 194.615 124.193 2.604v-7.496h-124.193z" fill="#EBEBEB"/><path d="M278.958 13.996h106.933v109.407h-106.933zm102.987 3.945h-99.042v101.518h99.042z" fill="#DBDBDB"/><path d="M351.765 13.996H349.636v105.464h2.129zm-36.549 0h-2.131v105.464h2.131z" fill="#DBDBDB"/><path d="M22.115 9.785v167.765h115.455V9.787zm111.193 163.455H26.375V13.998H133.309z" fill="#EBEBEB"/><path d="M133.309 13.996H26.373v159.245H133.309z" fill="#fff"/><path d="M26.373 100.682h106.933V96.418H26.373z" fill="#EBEBEB"/><path d="M14.262 189.722h131.145v-12.229H14.262z" fill="#DBDBDB"/><path d="m17.745 194.615 124.193 2.604v-7.496H17.745z" fill="#EBEBEB"/><path d="M26.375 13.996H133.309v109.407H26.375zm102.987 3.945H30.32v101.518H129.364z" fill="#DBDBDB"/><path d="M99.178 13.996h-2.129v105.464h2.129zm-36.549 0h-2.131v105.464h2.131z" fill="#DBDBDB"/><path d="M293.625 337.278h-98.311v81.231h98.311z" fill="#3BB6FC"/><path opacity=".1" d="M293.625 337.278h-98.311v81.231h98.311z" fill="#000"/><path d="M332.584 337.289h-38.958v81.231h38.958z" fill="#3BB6FC"/><path opacity=".2" d="M332.584 337.289h-38.958v81.231h38.958z" fill="#000"/><path d="M329.891 412.916a2083.636 2083.636 0 0 1 -8.571 -17.378l-8.453 -17.476 -8.344 -17.545a2170.909 2170.909 0 0 1 -8.216 -17.635 1789.091 1789.091 0 0 1 8.58 17.378l8.444 17.476 8.344 17.545a1583.636 1583.636 0 0 1 8.216 17.635" fill="#3BB6FC"/><path d="M329.891 342.882a1458.182 1458.182 0 0 1 -8.216 17.635l-8.344 17.545 -8.444 17.476q-4.249 8.711 -8.58 17.378 4.073 -8.875 8.216 -17.635l8.344 -17.545 8.453 -17.467q4.249 -8.727 8.571 -17.387" fill="#3BB6FC"/><path d="M251.422 354.835h-2.722l-0.66 -1.351 -0.938 1.351 -1.273 -2.78 -1.193 2.78h-5l-0.573 -1.853 -0.533 1.853h-1.015v-17.545h13.905z" fill="#fff"/><path d="M299.555 256.06h-73.351v81.22h73.351zm37.873 0h-37.873v81.229h37.873z" fill="#3BB6FC"/><path opacity=".1" d="M337.427 256.06h-37.873v81.229h37.873z" fill="#000"/><g opacity=".1" fill="#000"><path d="M294.18 331.687a2180 2180 0 0 1 -16.018 -17.378l-15.809 -17.516 -15.575 -17.545a1761.818 1761.818 0 0 1 -15.345 -17.635 1845.455 1845.455 0 0 1 16.016 17.387l15.782 17.467 15.573 17.545a1800 1800 0 0 1 15.376 17.675"/><path d="M294.18 261.651a1487.273 1487.273 0 0 1 -15.345 17.635l-15.575 17.507 -15.78 17.476a1394.545 1394.545 0 0 1 -16.016 17.378 1487.273 1487.273 0 0 1 15.345 -17.635l15.544 -17.505 15.782 -17.467q7.958 -8.731 16.045 -17.389"/></g><path d="M332.102 323.54h-6.638v9.371h6.638z" fill="#fff"/><path d="m0.444 418.549 51.424 -0.247 51.425 -0.078 102.838 -0.167 102.84 0.167 51.424 0.078 51.425 0.247 -51.425 0.236 -51.424 0.089 -102.84 0.167 -102.838 -0.167 -51.425 -0.089zM245.305 138.791a76.364 76.364 0 0 0 -1.656 -1.036l0.384 -0.642 1.678 1.055zm-24.082 98.825h-0.709v-0.74q1.976 0.044 3.945 -0.149l0.078 0.74c-1.075 0.08 -2.2 0.149 -3.315 0.149m7.318 -0.809 -0.158 -0.72q1.927 -0.436 3.769 -1.155l0.265 0.691q-1.895 0.727 -3.876 1.164zm7.525 -2.958 -0.364 -0.642a24.545 24.545 0 0 0 3.224 -2.249l0.475 0.562q-1.569 1.309 -3.335 2.338zm6.244 -5.129 -0.542 -0.504q1.327 -1.462 2.435 -3.096l0.613 0.415a28.182 28.182 0 0 1 -2.505 3.205zm4.516 -6.696 -0.671 -0.316q0.845 -1.784 1.373 -3.689l0.709 0.198a23.636 23.636 0 0 1 -1.411 3.816zm2.131 -7.813 -0.74 -0.058c0 -0.533 0.069 -1.076 0.069 -1.598a20 20 0 0 0 -0.127 -2.189 20 20 0 0 1 -2.289 -0.287l0.129 -0.729c1.204 0.218 2.425 0.329 3.649 0.335h0.256v0.74h-1.005q0.118 1.073 0.118 2.151c0.009 0.533 -0.02 1.095 -0.06 1.647zm5 -4.28 -0.167 -0.72a16.364 16.364 0 0 0 3.66 -1.342l0.335 0.662a17.273 17.273 0 0 1 -3.827 1.409zm-12.013 -0.916a25.455 25.455 0 0 1 -3.698 -1.678l0.365 -0.64q1.724 0.953 3.58 1.616zm5.307 -2.605a17.636 17.636 0 0 0 -1.696 -3.52l0.62 -0.395c0.731 1.151 1.327 2.382 1.776 3.669zm13.925 -0.156 -0.473 -0.564q1.504 -1.269 2.731 -2.811l0.573 0.464c-0.842 1.073 -1.791 2.058 -2.831 2.94zm-26.275 -1.184 -0.207 -0.198a8.909 8.909 0 0 1 -2.278 -3.105l0.691 -0.276a8.182 8.182 0 0 0 2.091 2.84l0.196 0.178zm31.393 -5.04 -0.631 -0.385c0.691 -1.144 1.333 -2.318 1.895 -3.471l0.671 0.325a43.636 43.636 0 0 1 -1.935 3.531m-23.196 -0.149a17.636 17.636 0 0 0 -2.958 -2.307l-0.149 -0.098 0.385 -0.631 0.158 0.098c1.098 0.695 2.12 1.504 3.047 2.416zm-9.795 -1.902 -0.611 -0.415a4.491 4.491 0 0 1 3.727 -1.895v0.74a3.818 3.818 0 0 0 -3.116 1.569m36.493 -5.198 -0.691 -0.256q0.687 -1.86 1.175 -3.778l0.709 0.178a34.545 34.545 0 0 1 -1.182 3.856zm1.973 -7.822 -0.74 -0.098q0.264 -1.964 0.305 -3.945h0.74a36.364 36.364 0 0 1 -0.305 4.044m-0.573 -7.989a38.182 38.182 0 0 0 -0.562 -3.945l0.731 -0.145q0.385 1.982 0.571 3.993zm-1.527 -7.751a41.818 41.818 0 0 0 -1.333 -3.738l0.691 -0.276c0.513 1.253 0.985 2.535 1.351 3.796zm-2.96 -7.349a45.455 45.455 0 0 0 -1.973 -3.462l0.631 -0.384c0.711 1.153 1.382 2.336 1.973 3.509zm-4.153 -6.764a54.545 54.545 0 0 0 -2.425 -3.147l0.573 -0.473c0.858 1.035 1.685 2.109 2.455 3.184zm-5.049 -6.136a50.909 50.909 0 0 0 -2.811 -2.811l0.504 -0.542a49.091 49.091 0 0 1 2.84 2.849zm-5.789 -5.455a65.455 65.455 0 0 0 -3.116 -2.455l0.433 -0.593a58.182 58.182 0 0 1 3.156 2.485zm-35.34 93.745a18.182 18.182 0 0 1 -1.973 -0.355l0.178 -0.72s0.709 0.178 1.893 0.345z" fill="#263238"/><path d="M206.429 235.791c-0.464 3.945 7.595 6.155 8.205 0.985s-7.742 -4.96 -8.205 -0.985" fill="#263238"/><path d="M216.982 242.32c-0.751 1.489 -3.404 1.696 -6.145 -0.216a18.364 18.364 0 0 1 -4.635 -5.198 18.182 18.182 0 0 1 6.904 0.602c3.244 1.095 4.665 3.304 3.876 4.813" fill="#EBEBEB"/><path d="M206.233 236.905c1.558 0.7 3.087 1.46 4.615 2.209 1.529 0.749 3.038 1.547 4.527 2.376 -1.558 -0.7 -3.087 -1.46 -4.615 -2.209a100 100 0 0 1 -4.527 -2.376" fill="#263238"/><path d="M213.389 242.291a13.273 13.273 0 0 1 -1.795 -2.684 14.545 14.545 0 0 1 0.987 1.293q0.449 0.669 0.807 1.391m-3.313 -3.462q0.815 -0.213 1.647 -0.336 0.842 -0.118 1.687 -0.147a17.091 17.091 0 0 1 -3.335 0.484m-0.858 0.651a3.727 3.727 0 0 1 -0.709 -1.44c0.34 0.422 0.582 0.913 0.709 1.44" fill="#263238"/><path d="M218.285 231.993c-0.385 -1.627 -2.911 -2.435 -6.016 -1.213a18.364 18.364 0 0 0 -5.722 3.995c2.218 0.767 4.562 1.104 6.904 0.987 3.325 -0.276 5.227 -2.091 4.835 -3.769" fill="#EBEBEB"/><path d="M206.547 234.775c1.676 -0.315 3.344 -0.709 5.002 -1.095a101.818 101.818 0 0 0 4.931 -1.262c-1.667 0.315 -3.335 0.709 -4.991 1.095a109.091 109.091 0 0 0 -4.942 1.262" fill="#263238"/><path d="M214.764 231.185a14.545 14.545 0 0 0 -1.233 0.985q-0.589 0.553 -1.115 1.164 0.651 -0.451 1.233 -0.985 0.591 -0.551 1.115 -1.164m-4.044 2.602c1 0.522 2.051 0.935 3.136 1.235a15.455 15.455 0 0 0 -3.136 -1.235m-0.642 -0.827q-0.324 0.24 -0.582 0.553a3.636 3.636 0 0 0 -0.444 0.68q0.322 -0.247 0.582 -0.562 0.269 -0.304 0.444 -0.671" fill="#263238"/><path d="M206.429 235.791a1.442 1.442 0 0 1 1.204 1.869 1.455 1.455 0 0 1 -1.249 0.996 1.455 1.455 0 0 1 -1.4 -0.773 1.455 1.455 0 0 1 -0.153 -0.82 1.455 1.455 0 0 1 1.598 -1.273" fill="#455A64"/><path d="M206.762 232.92a1.455 1.455 0 0 1 0.965 0.54 1.427 1.427 0 0 1 0.129 1.6 1.455 1.455 0 0 1 -1.429 0.731 1.436 1.436 0 0 1 -1.267 -1.604 1.445 1.445 0 0 1 1.602 -1.267" fill="#455A64"/><path d="M117.364 328.66S96.34 370.764 96.327 370.764c-1.736 8.689 -3.096 16.353 -3.442 20.376a0.182 0.182 0 0 0 0 0.069c-0.182 0.933 -0.145 1.895 0.109 2.811a0.182 0.182 0 0 0 0 0.069c2.236 2.269 71.336 18.178 73.971 17.92s2.071 -7.682 -0.12 -10.435c-2.189 -2.751 -25.927 -20.711 -25.927 -20.711l20.553 -42.173z" fill="#D3766A"/><path d="M165.922 412.049c-2.595 0.256 -70.658 -15.662 -72.887 -17.92a0.182 0.182 0 0 1 0 -0.069 6.091 6.091 0 0 1 -0.118 -2.811 0.091 0.091 0 0 1 0 -0.069c0.336 -4.024 1.707 -11.687 3.433 -20.387l5.031 -10.078 43.602 11.953 -4.024 8.265s22.685 17.92 24.884 20.711c2.2 2.791 2.684 10.16 0.08 10.405" fill="#EBEBEB"/><path d="M166.867 410.944c-2.633 0.198 -71.9 -17.456 -74.109 -19.804 -0.849 -0.878 1.135 -11.125 3.885 -23.435l0.089 -0.384 44.818 10.898 -0.209 0.749s23.484 18.62 25.644 21.462c2.16 2.84 2.505 10.325 -0.118 10.513" fill="#263238"/><path d="M166.76 408.055c-11.6 -3.255 -58.704 -15.325 -70.42 -17.673 -0.098 0 -0.118 0.049 0 0.078 11.431 3.482 58.635 15.169 70.4 17.753 0.227 0.089 0.267 -0.089 0.02 -0.158m-21.702 -27.991c-4.378 -2.031 -10.178 -2.762 -14.516 -0.375 -0.169 0.089 0 0.325 0.116 0.316a66.727 66.727 0 0 1 14.233 0.631 0.309 0.309 0 0 0 0.313 -0.22 0.309 0.309 0 0 0 -0.145 -0.353m2.805 2.842c-4.369 -2.022 -10.169 -2.753 -14.518 -0.376 -0.167 0.089 0 0.325 0.127 0.325a66.182 66.182 0 0 1 14.233 0.633q0.113 0.007 0.204 -0.053a0.309 0.309 0 0 0 -0.045 -0.529m2.809 2.849c-4.382 -2.031 -10.18 -2.762 -14.52 -0.384 -0.167 0.098 0 0.335 0.129 0.325a66.545 66.545 0 0 1 14.222 0.631 0.309 0.309 0 0 0 0.195 -0.055 0.309 0.309 0 0 0 -0.027 -0.518" fill="#fff"/><path d="M168.553 408.735c1.115 0.789 -0.216 4.884 -1.193 4.991s-76.418 -19.478 -77.611 -20.1 0.444 -5.098 1.973 -4.931 76.831 20.04 76.831 20.04" fill="#3BB6FC"/><path d="M106.191 377.993c-4.378 -3.787 -10.276 3.018 -5.916 6.816 4.358 3.796 10.305 -3.018 5.916 -6.816" fill="#fff"/><path d="m101.505 357.349 50.536 12.744s47.105 -85.007 46.051 -106.616c-1.451 -29.805 -36.444 -121.451 -36.444 -121.451H119.753s27.802 99.073 28.187 115.74c0.167 8.718 -46.435 99.584 -46.435 99.584" fill="#455A64"/><path d="M154.204 359.835c-2.691 -1.075 -26.745 -8.018 -44.696 -11.835a0.091 0.091 0 0 0 -0.049 0.036 0.091 0.091 0 0 0 0 0.115q0.018 0.025 0.047 0.036c5.653 1.973 41.316 11.371 44.66 11.835 0.078 0.031 0.158 -0.107 0.038 -0.187m-2.791 -123.353a1432.727 1432.727 0 0 0 -10.653 -41.789c-3.747 -13.856 -7.762 -27.842 -12.171 -41.591 -0.533 -1.687 -1.095 -3.353 -1.636 -5.031a0.209 0.209 0 0 0 -0.262 -0.142 0.211 0.211 0 0 0 -0.144 0.262c3.945 13.698 7.891 27.369 11.629 41.116a1500 1500 0 0 1 10.651 41.424c0.84 3.433 1.658 6.855 2.456 10.298a92.727 92.727 0 0 1 2.151 10.72 27.818 27.818 0 0 1 -0.7 10.316 58.182 58.182 0 0 1 -3.72 9.607q-9.064 19.676 -18.116 39.362c-6.036 13.156 -7.013 16.155 -12.822 29.42 -0.72 1.647 -1.44 3.295 -2.131 4.933 0 0.107 0.109 0.205 0.167 0.087 6.609 -12.998 7.624 -16.125 13.809 -29.36 6.182 -13.236 12.327 -26.631 18.462 -39.955 2.764 -6.016 6.007 -12.151 6.422 -18.878 0.415 -7.022 -1.796 -14.064 -3.393 -20.8" fill="#263238"/><path d="m153.702 345.307 1.618 46.355c0.265 8.878 0.649 16.64 1.231 20.635a6.182 6.182 0 0 0 0.729 2.78l0.06 0.06c2.693 1.705 73.596 1.667 76.073 0.827 2.475 -0.838 0.285 -7.938 -2.465 -10.138s-29.915 -14.32 -29.915 -14.32l-2.062 -46.307z" fill="#D3766A"/><path d="m154.982 382.175 0.335 9.518c0.265 8.876 0.651 16.638 1.233 20.633a0.182 0.182 0 0 0 0 0.069 11.818 11.818 0 0 0 0.729 2.713l0.06 0.058c2.691 1.707 73.596 1.667 76.071 0.829 2.476 -0.838 0.285 -7.94 -2.465 -10.138 -2.751 -2.2 -29.915 -14.322 -29.915 -14.322l-0.207 -9.655z" fill="#EBEBEB"/><path d="M233.449 415.916c-2.505 0.798 -73.971 -0.307 -76.673 -2.082 -0.987 -0.66 -1.48 -11.076 -1.658 -23.671v-0.395l46.12 0.198v0.789s27.171 12.653 29.924 14.913c2.751 2.258 4.802 9.476 2.287 10.247" fill="#263238"/><path d="M232.691 413.173c-12.042 -0.482 -60.665 -1.291 -72.609 -0.847 -0.098 0 -0.098 0.069 0 0.069 11.924 0.74 60.558 1.164 72.609 0.985 0.247 -0.058 0.256 -0.207 0 -0.207m-27.604 -22.24c-4.725 -0.985 -10.544 -0.325 -14.213 2.958 -0.149 0.129 0 0.325 0.196 0.287a67.273 67.273 0 0 1 13.985 -2.693 0.291 0.291 0 0 0 0.144 -0.102 0.291 0.291 0 0 0 0.018 -0.335 0.291 0.291 0 0 0 -0.131 -0.116m3.389 2.111c-4.735 -0.987 -10.544 -0.316 -14.213 3.007 -0.147 0.129 0 0.325 0.189 0.276a66.727 66.727 0 0 1 13.995 -2.682 0.309 0.309 0 0 0 0.205 -0.489 0.309 0.309 0 0 0 -0.176 -0.113m3.385 2.12c-4.724 -0.985 -10.533 -0.325 -14.211 2.958 -0.138 0.129 0 0.325 0.196 0.287a67.273 67.273 0 0 1 13.985 -2.693 0.291 0.291 0 0 0 0.144 -0.102 0.291 0.291 0 0 0 0.062 -0.164 0.291 0.291 0 0 0 -0.044 -0.171 0.291 0.291 0 0 0 -0.133 -0.116" fill="#fff"/><path d="M234.582 413.371c1.273 0.513 0.927 4.802 0 5.127 -0.925 0.325 -78.902 -1.222 -80.175 -1.538s-0.758 -5.06 0.789 -5.285c1.549 -0.227 79.385 1.696 79.385 1.696" fill="#3BB6FC"/><path d="M166.798 397.935c-5.14 -2.673 -9.302 5.316 -4.153 7.989s9.3 -5.316 4.153 -7.989" fill="#fff"/><path d="M161.125 141.945c-0.187 0.86 -10.633 42.155 -11.935 42.924 -1.478 0.878 37.953 53.931 42.627 79.978 2.958 16.658 9.864 113.756 9.864 113.756H151.4s-4.931 -82.462 -6.567 -109.635c-0.642 -10.544 -40.191 -59.285 -43.949 -91.782 -1.184 -10.238 6.175 -35.28 6.175 -35.28z" fill="#455A64"/><path d="M150.127 339.371c-0.591 -13.66 -1.133 -27.351 -2.129 -40.991 -0.564 -7.733 -1.667 -15.218 -2.436 -22.92 0 -0.405 -0.364 -0.504 -0.355 -0.089 0.355 13.718 1.489 27.289 2.218 41 0.731 13.709 1.431 16.904 2.209 30.575 0.435 7.731 0.818 15.464 1.42 23.187q0.011 0.029 0.036 0.049t0.058 0.018a0.182 0.182 0 0 0 0.058 -0.018 0.182 0.182 0 0 0 0.036 -0.049c0.029 -13.729 -0.515 -17.053 -1.116 -30.762m41.742 -73.873a72.727 72.727 0 0 0 -2.091 -10.682 54.545 54.545 0 0 0 -4.073 -9.813c-3.424 -6.569 -7.318 -12.922 -11.076 -19.302a923.636 923.636 0 0 0 -11.636 -19.273 2581.818 2581.818 0 0 0 -6.718 -10.72c-2.287 -3.6 -4.704 -7.131 -7.062 -10.682a0.133 0.133 0 0 0 -0.242 0.038 0.127 0.127 0 0 0 0.015 0.1c3.847 6.451 7.655 12.911 11.5 19.36a2758.182 2758.182 0 0 1 11.422 19.391c3.787 6.469 7.465 12.742 11.036 19.213a67.273 67.273 0 0 1 4.527 9.587 58.909 58.909 0 0 1 2.535 10.542c1.342 8.355 2.436 16.767 4.113 25.042q0.009 0.031 0.036 0.049a0.091 0.091 0 0 0 0.115 0 0.091 0.091 0 0 0 0.036 -0.049c-0.524 -7.613 -1.431 -15.238 -2.436 -22.802m5.384 104.485c-2.869 -0.375 -24.775 -1.135 -43.1 -0.345 -0.118 0 -0.109 0.178 0 0.187 5.967 0.524 39.707 0.76 43.071 0.365 0.089 -0.009 0.127 -0.187 0.029 -0.207" fill="#263238"/><path d="M155.755 182.049a93.636 93.636 0 0 0 -14.795 6.904 0.182 0.182 0 0 0 -0.089 0.093 0.182 0.182 0 0 0 0.005 0.129 0.182 0.182 0 0 0 0.093 0.087 0.182 0.182 0 0 0 0.127 -0.004c4.991 -2.149 10.091 -4.202 14.964 -6.618a0.333 0.333 0 1 0 -0.305 -0.591m1.507 -34.184c0 -0.169 -0.316 -0.207 -0.316 0a167.273 167.273 0 0 1 -0.836 16.687c-0.238 2.575 -2.309 16.767 -6.767 15.782 -0.749 -0.178 -1.125 -0.909 -1.244 -2.044 0.013 -1.473 0.213 -2.936 0.593 -4.358 0.493 -2.96 0.887 -5.918 1.145 -8.965a81.273 81.273 0 0 0 -0.18 -16.825 0.147 0.147 0 0 0 -0.285 0 154.545 154.545 0 0 1 -1.36 23.216c-0.564 3.698 -2.427 9.271 1.449 9.862s6.491 -8.747 6.964 -11.302c1.233 -7.284 1.515 -14.696 0.836 -22.055" fill="#263238"/><path d="M149.458 180.638q-0.593 1.447 -0.987 2.958a6.727 6.727 0 0 0 -0.413 2.416q0.005 0.053 0.042 0.091t0.087 0.049a0.164 0.164 0 0 0 0.176 -0.071c0.465 -0.725 0.815 -1.522 1.036 -2.356 0.345 -0.916 0.7 -1.815 0.985 -2.742a0.495 0.495 0 0 0 -0.927 -0.345m2.102 101.587c-0.473 -7.022 -0.444 -14.429 -3.433 -20.938a69.818 69.818 0 0 0 -5.464 -9.115 670.909 670.909 0 0 1 -6.036 -9.398c-7.891 -12.595 -15.504 -25.447 -22.436 -38.613 -3.345 -6.342 -6.422 -12.891 -8.098 -19.895a63.636 63.636 0 0 1 -0.918 -22.447c0.236 -1.864 0.495 -3.718 0.8 -5.573a0.109 0.109 0 0 0 -0.207 -0.049 73.455 73.455 0 0 0 -1.647 21.698 60.545 60.545 0 0 0 5.789 20.013c3.058 6.616 6.696 12.989 10.287 19.331a596.364 596.364 0 0 0 11.431 19.438c3.945 6.373 8.009 12.615 12.082 18.887a36 36 0 0 1 4.804 9.656c0.896 3.591 1.411 7.267 1.538 10.967 0.985 15.524 4.931 67.136 6.331 82.582q0.253 2.958 0.533 5.916a0.145 0.145 0 0 0 0.024 0.122 0.182 0.182 0 0 0 0.049 0.04q0.029 0.013 0.062 0.013a0.182 0.182 0 0 0 0.06 -0.013 0.182 0.182 0 0 0 0.049 -0.04 0.145 0.145 0 0 0 0.024 -0.122c-0.593 -15.504 -4.605 -66.987 -5.622 -82.462" fill="#263238"/><path d="M127.425 155.558c0 -0.109 -0.176 -0.069 -0.176 0 -0.149 4.309 0 8.767 -1.687 12.82 -1.518 3.738 -4.576 6.364 -8 8.325a61.818 61.818 0 0 1 -6.144 3.007c-0.147 0.069 -0.089 0.305 0.08 0.256 3.945 -1.262 8.018 -2.633 11.322 -5.276 3.531 -2.84 5.078 -6.953 5.247 -11.391a36.727 36.727 0 0 0 -0.642 -7.742" fill="#263238"/><path d="M149.311 85.305c5.642 17.318 20.88 46.818 26.324 50.378 4.824 3.145 27.518 -0.364 37.478 -2.762 3.709 -0.896 -4.635 -29.164 -8.589 -28.127 -4.745 1.242 -18.878 4.427 -19.904 3.638s-15.278 -18.345 -25.376 -28.68c-9.193 -9.36 -12.064 -0.996 -9.933 5.553" fill="#D3766A"/><path d="M210.933 133.14c1.904 -0.236 18.009 -0.987 25.396 -5 3.945 -2.142 14.015 -9.222 13.009 -11.767 -0.918 -2.318 -4.153 -1.055 -4.153 -1.055s4.449 -3.225 3.147 -6.44c-1.302 -3.216 -6.678 -0.8 -6.678 -0.8s4.329 -3.649 2.802 -6.756c-1.529 -3.105 -6.52 0.218 -6.52 0.218s4.113 -3.145 1.775 -5.178c-2.82 -2.447 -9.753 4.222 -14.438 5.778 -1.065 0.356 -22.053 5.662 -22.053 5.662z" fill="#D3766A"/><path d="M237.762 101.451c-5.109 4.882 -8.196 6.135 -15.022 7.515 -0.127 0 -0.118 0.236 0 0.218 6.805 -0.74 10.9 -1.756 15.249 -7.496 0.236 -0.285 0.009 -0.473 -0.227 -0.236m3.727 6.509c-5.751 4.615 -9.084 5.996 -16.125 7.969 -0.098 0 -0.06 0.207 0.049 0.187 7.062 -1.362 11.125 -2.465 16.264 -7.831 0.236 -0.236 0.078 -0.533 -0.187 -0.327m3.353 7.438c-5.918 4.064 -9.478 5.751 -16.56 6.785a0.127 0.127 0 0 0 -0.091 0.036 0.127 0.127 0 0 0 -0.036 0.091q0 0.055 0.036 0.091 0.038 0.038 0.091 0.038c7.329 -0.355 11.836 -2.416 16.638 -6.844 0.356 -0.276 0.287 -0.444 -0.078 -0.198" fill="#263238"/><path d="M197.718 108.709s5.867 -6.636 9.084 -8.984c3.215 -2.347 18.444 -6.687 19.567 -3.453 1.451 4.182 -6.844 8.413 -11.175 9.951 0 0 3.364 9.665 -1.973 13.985s-15.504 -11.5 -15.504 -11.5" fill="#D3766A"/><path d="M226.4 97.564c-1.431 4.764 -7.249 6.422 -11.344 8.225a0.418 0.418 0 0 0 -0.244 0.485 0.364 0.364 0 0 0 0.087 0.176c1.144 4.142 1.538 10.316 -1.362 13.807 -0.078 0.1 0.049 0.236 0.147 0.149 3.62 -3.315 3.72 -9.418 2.18 -13.878 4.231 -1.785 9.991 -3.709 10.573 -8.945 0.011 -0.018 -0.029 -0.018 -0.038 -0.018" fill="#263238"/><path d="m210.924 138.002 -7.436 -33.869 -18.405 3.345c-7.258 -8.316 -21.767 -24.935 -27.615 -29.925 -6.904 -5.858 -11.422 -1.46 -8.876 7.418 5.749 20.287 22.564 50.073 26.964 52.884 6.382 4.093 35.369 0.147 35.369 0.147" fill="#3BB6FC"/><path opacity=".1" d="M184.651 117.784a14.545 14.545 0 0 0 2.771 0.325c1.973 0.265 2.84 3.176 1.045 4.28a7.073 7.073 0 0 1 -6.351 0.544c-1.973 -0.771 -3.64 -2.684 -3.216 -4.933a2.467 2.467 0 0 1 3.945 -1.518q0.824 0.762 1.805 1.302m-5.091 -8.058c-0.709 3.355 4.48 6.233 7.133 4.449a1.8 1.8 0 0 0 0.549 -2.158 1.818 1.818 0 0 0 -0.48 -0.635c-0.78 -0.631 -1.431 -0.729 -2.12 -1.302a3.273 3.273 0 0 1 -0.633 -0.66 4.727 4.727 0 0 0 -1.469 -1.322 2.158 2.158 0 0 0 -2.978 1.627m-8.273 0.178c-1.065 1.391 -0.267 3.482 0.671 4.744a4.273 4.273 0 0 0 3.875 1.884 1.438 1.438 0 0 0 0.731 -2.525 4.545 4.545 0 0 1 -1.382 -1.716c-0.464 -1.045 -0.769 -2.396 -1.971 -2.849a1.691 1.691 0 0 0 -1.924 0.464m21.845 21.935c-1.391 2.811 2.84 6.005 5.405 5.455 0.858 -0.187 1.685 -1.313 0.927 -2.122 -0.613 -0.651 -1.342 -1.164 -1.915 -1.855 -0.7 -0.836 -1.084 -1.913 -2.18 -2.336a1.735 1.735 0 0 0 -2.238 0.858m-39.727 -34.471a3.818 3.818 0 0 0 -0.985 -1.193q0.827 2.12 1.745 4.251a5.818 5.818 0 0 0 -0.76 -3.058m5.493 -2.958a11.691 11.691 0 0 0 -2.722 -6.618c-1.182 -1.527 -3.235 -3.945 -5.404 -3.422a1.127 1.127 0 0 0 -0.789 1.084c-0.138 1.667 1.775 3.453 2.604 4.784 0.985 1.676 1.764 3.531 2.831 5.198a1.893 1.893 0 0 0 3.48 -1.036zm-0.64 10.602a1.8 1.8 0 0 0 1.656 -1.36 4.455 4.455 0 0 0 -0.147 -2.298 3.818 3.818 0 0 0 -0.987 -1.873 1.4 1.4 0 0 0 -2.307 0.678 6.364 6.364 0 0 0 0 1.736v0.749a4.545 4.545 0 0 0 0.118 1.105 1.745 1.745 0 0 0 1.667 1.253z" fill="#030402"/><path d="M204.482 135.044c-0.849 -1.973 -2.958 -10.731 -3.422 -12.909 -0.464 -2.182 -2.18 -11 -2.684 -13.236 0 -0.129 0.138 -0.2 0.167 -0.08 0.533 2.209 2.911 10.909 3.433 13.078 0.524 2.169 2.485 10.918 2.624 13.116l0.002 0.025 -0.009 0.022a0.055 0.055 0 0 1 -0.036 0.027 0.073 0.073 0 0 1 -0.047 -0.007 0.073 0.073 0 0 1 -0.027 -0.036" fill="#263238"/><path opacity=".1" d="M187.391 139.698c-5.178 0 -9.725 -0.493 -11.836 -1.844 -4.429 -2.86 -21.244 -32.547 -27.035 -52.875 -1.458 -5.091 -0.582 -8.72 1.727 -9.775z" fill="#000"/><path d="M103.931 146.593c0.127 0.187 61.673 8.076 62.333 7.505q0.524 -2.573 0.74 -5.189s-5.642 -67.007 -8.56 -70.942c-2.555 -3.433 -10.307 -5.918 -15.584 -3.678 -11.076 4.695 -37.596 64.56 -37.311 67.065 -0.02 -0.029 -1.776 5 -1.618 5.236" fill="#3BB6FC"/><path opacity=".1" d="M126.125 138.436a16.364 16.364 0 0 0 2.958 1.104c2.051 0.818 2.238 4.242 0 4.933a8 8 0 0 1 -7.102 -1.135c-1.973 -1.382 -3.244 -3.945 -2.18 -6.235a2.782 2.782 0 0 1 4.715 -0.591c0.553 0.642 0.889 1.491 1.609 1.924m-3.375 -10.189c-1.685 3.482 3.196 8.029 6.58 6.796a1.971 1.971 0 0 0 0.827 -3.038c-0.671 -0.898 -1.36 -1.184 -1.973 -1.973a3.636 3.636 0 0 1 -0.502 -0.898 5.636 5.636 0 0 0 -1.255 -1.835c-1.173 -1.133 -3.055 -0.335 -3.678 0.947m-5.7 -3.709c-1.844 0.691 -2.318 3.176 -2.18 4.933A4.818 4.818 0 0 0 117.455 133.582a1.618 1.618 0 0 0 2.2 -1.973 5.091 5.091 0 0 1 -0.316 -2.485c0.169 -1.262 0.673 -2.742 -0.167 -3.876a1.909 1.909 0 0 0 -2.12 -0.709m20.218 11.738a1.836 1.836 0 0 0 -1.973 1.567 2.145 2.145 0 0 0 1.529 2.278c0.673 0.222 1.4 0.222 2.073 0a1.545 1.545 0 0 0 0.798 -0.72 1.6 1.6 0 0 0 0.225 -1.065 1.727 1.727 0 0 0 -1.351 -1.418 1.091 1.091 0 0 0 -0.216 -0.218 2.055 2.055 0 0 0 -1.085 -0.424m-15.118 -23.8c-1.658 1.696 -0.987 5.553 0.907 6.855a1.753 1.753 0 0 0 2.8 -1.153q0.044 -0.585 0 -1.175c0 -0.424 -0.058 -0.691 0 -0.985a9.091 9.091 0 0 0 0.089 -2.555 2.169 2.169 0 0 0 -3.796 -0.987M111.449 137.018c-2.278 2.702 1.48 7.336 4.429 7.425 0.985 0 2.2 -0.985 1.587 -2.071 -0.493 -0.867 -1.155 -1.636 -1.587 -2.535 -0.533 -1.105 -0.662 -2.396 -1.745 -3.145a1.973 1.973 0 0 0 -2.684 0.325m54.413 -0.858a1.891 1.891 0 0 0 -1.558 1.418c-0.316 1.096 -0.355 2.073 -1.175 2.96a13.455 13.455 0 0 0 -2.367 2.396 1.455 1.455 0 0 0 1.322 2.111 6.818 6.818 0 0 0 4.409 -2.405c-0.196 -1.875 -0.395 -4.073 -0.622 -6.52zm-4.931 -8.138c-0.553 1.342 -0.455 2.862 -0.918 4.262q-0.611 1.927 -1.449 3.767c-0.415 0.887 0.415 2.287 1.489 1.815a7.418 7.418 0 0 0 4.004 -3.658c0.751 -1.549 1.578 -4.153 0.858 -5.8s-3.165 -2.367 -4.004 -0.424zm-5.622 13.444a8.909 8.909 0 0 1 -3.067 2.515 2.111 2.111 0 1 0 1.725 3.818 7.6 7.6 0 0 0 4.28 -4.795c0.464 -1.705 -1.844 -2.82 -2.958 -1.578zm-9.015 -48.327a2.182 2.182 0 0 0 2.564 -1.598c0.553 -2.12 -1.342 -4.3 -2.84 -5.622s-3.611 -2.525 -5.709 -1.844a1.727 1.727 0 0 0 -0.702 2.849c0.916 1.145 2.189 1.973 3.165 3.098 0.976 1.124 1.785 2.791 3.502 3.076zm7.564 8.373c0.829 -1.193 0.187 -2.958 -0.404 -4.091a3.636 3.636 0 0 0 -1.411 -1.5 1.836 1.836 0 0 0 -2.524 0.542 2.418 2.418 0 0 0 -0.12 1.795q0.127 0.465 0.336 0.898v0.167a6 6 0 0 0 1.164 2.584 1.873 1.873 0 0 0 2.958 -0.395m5.091 -7.062a11.691 11.691 0 0 0 -2.724 -6.618c-1.182 -1.527 -3.235 -3.945 -5.404 -3.422a1.127 1.127 0 0 0 -0.789 1.085c-0.138 1.667 1.775 3.451 2.604 4.782 0.985 1.678 1.764 3.533 2.831 5.2a1.893 1.893 0 0 0 3.431 -1.076zm-7.447 16.885c0.36 0.08 0.735 0.08 1.095 0 0.545 -0.167 1.009 -0.538 1.291 -1.036a3.636 3.636 0 0 0 0.385 -1.705 3.455 3.455 0 0 0 -0.444 -1.598l-0.325 -0.404 -0.435 -0.316a2.031 2.031 0 0 0 -2.898 1.302q-0.245 0.865 -0.345 1.756l0.089 0.542c0.067 0.273 0.204 0.524 0.393 0.731 0.298 0.345 0.7 0.582 1.145 0.68zm6.805 -6.282a1.8 1.8 0 0 0 1.656 -1.362 4.455 4.455 0 0 0 -0.147 -2.298 3.818 3.818 0 0 0 -0.987 -1.873 1.4 1.4 0 0 0 -2.307 0.68 6.364 6.364 0 0 0 0 1.736v0.749q-0.005 0.558 0.118 1.104a1.745 1.745 0 0 0 1.618 1.215z" fill="#030402"/><path d="M154.842 88.473c-3.756 -0.345 -8.569 -8.375 -9.487 -13.473 -0.058 -0.356 1.44 -3.325 3.087 -7.015 0.985 -2.238 2.051 -4.764 2.84 -7.131l13.651 8.591a40 40 0 0 0 -4.487 8.62 5.455 5.455 0 0 0 -0.218 0.987 1.818 1.818 0 0 1 0 0.167c-0.345 1.973 -1.745 9.587 -5.385 9.251" fill="#D3766A"/><path d="M160.229 79.073a1.818 1.818 0 0 1 0 0.167 10.909 10.909 0 0 1 -1.549 -0.425c-8.54 -3.076 -7.031 -14.28 -6.429 -17.378l3.402 2.151 9.32 5.918a39.636 39.636 0 0 0 -4.476 8.618 5.455 5.455 0 0 0 -0.267 0.947" fill="#263238"/><path d="M152.716 45.045c-2.822 5.078 -3.315 21.393 -0.187 25.722 4.516 6.273 13.589 8.718 19.34 2.958 5.573 -5.64 5.829 -26.915 2.2 -31.018 -5.365 -6.095 -17.191 -5.167 -21.353 2.338" fill="#D3766A"/><path d="M165.813 58.231s-0.091 0 -0.091 0.1c0 1.124 -0.196 2.405 -1.222 2.742v0.069c1.253 -0.138 1.491 -1.845 1.313 -2.909" fill="#263238"/><path d="M164.855 57.029c-1.807 -0.198 -2.073 3.413 -0.405 3.6s1.913 -3.433 0.404 -3.6m7.429 1.587s0.078 0.058 0.078 0.109c-0.127 1.113 -0.078 2.415 0.898 2.86v0.069c-1.233 -0.276 -1.273 -2.004 -0.976 -3.038" fill="#263238"/><path d="M173.378 57.531c1.804 0 1.656 3.62 0 3.62 -1.658 0 -1.52 -3.629 0 -3.618m-7.062 -1.235c-0.504 0.109 -0.987 0.118 -1.48 0.178a2.4 2.4 0 0 1 -1.538 -0.109 0.764 0.764 0 0 1 -0.307 -0.887 1.909 1.909 0 0 1 1.636 -0.987c0.684 -0.131 1.389 0.004 1.975 0.376a0.807 0.807 0 0 1 -0.285 1.429m8.678 -2.129a12.727 12.727 0 0 1 -1.411 -0.484 2.364 2.364 0 0 1 -1.342 -0.76 0.764 0.764 0 0 1 0.109 -0.927 1.873 1.873 0 0 1 1.913 -0.216c0.667 0.182 1.244 0.604 1.618 1.182a0.818 0.818 0 0 1 -0.887 1.205m-10.004 12.958a9.455 9.455 0 0 1 4.418 0c0.127 0 0.256 -0.255 0.287 -0.375l0.078 -2.367c0.305 0.178 1.844 0.987 1.844 0.553a56.364 56.364 0 0 0 -0.7 -11.5 0.109 0.109 0 0 0 -0.104 -0.076 0.109 0.109 0 0 0 -0.104 0.076c-0.158 3.56 0.296 7.111 0.187 10.691a6.545 6.545 0 0 0 -1.735 -0.66c-0.127 0 0 2.515 0 2.891a5.509 5.509 0 0 0 -4.144 0.225c-0.513 0.325 -0.72 0.758 -0.029 0.542m-2.916 2.347c0.247 0.276 0.493 0.651 0.887 0.709a2.909 2.909 0 0 0 1.215 -0.205s0.069 0 0 0.058a1.473 1.473 0 0 1 -1.44 0.515 1.182 1.182 0 0 1 -0.809 -0.987c0.018 -0.109 0.109 -0.127 0.147 -0.089" fill="#263238"/><path opacity=".2" d="M157.476 39.867c-0.149 2.535 -0.751 10.395 -1.973 11.993 -1.224 1.598 -3.807 5.316 -5.12 5.918 0.178 -5.236 0.987 -10.218 2.338 -12.822a13.382 13.382 0 0 1 4.755 -5.091" fill="#263238"/><path d="M171.533 47.551a5.764 5.764 0 0 1 -5.395 1.578 5.855 5.855 0 0 1 -4.271 -3.836c0 -0.06 -0.109 0 -0.089 0a5.782 5.782 0 0 0 4.242 4.249 5.927 5.927 0 0 0 5.611 -1.971c0.06 0.009 -0.018 -0.08 -0.098 -0.02m-4.951 -14.616a9.055 9.055 0 0 0 -7.891 3.649 6.491 6.491 0 0 0 -0.927 4.162h0.127a7.073 7.073 0 0 1 3.798 -6.164 9.164 9.164 0 0 1 8.145 -0.405 5.818 5.818 0 0 1 2.96 2.713c0.058 0.127 0.315 0.069 0.265 -0.06 -0.809 -2.149 -3.422 -3.747 -6.48 -3.896m18.838 8.602a7.309 7.309 0 0 0 -2.84 -4.133c-1.973 -1.411 -4.282 -1.391 -6.589 -1.313 -0.069 0 -0.058 0.1 0 0.091a10.236 10.236 0 0 1 5.7 1.055 7.236 7.236 0 0 1 3.087 3.756 7.045 7.045 0 0 1 -3.54 8.542 7.164 7.164 0 0 1 -5.682 0.178c-0.069 0 -0.127 0.069 -0.058 0.109a7.209 7.209 0 0 0 9.922 -8.285" fill="#263238"/><path d="M151.729 48.251s-2.722 -6.204 0.187 -9.458c1.647 -1.836 6.6 -1.204 6.6 -1.204a9.018 9.018 0 0 1 6.015 -3.373c4.231 -0.662 9.055 2.2 9.055 2.2s4.122 -1.973 7.664 0.424c4.931 3.344 3.698 11.164 -1.687 13.295 -3.787 1.509 -8.502 -2.1 -8.502 -2.1 -0.473 0 -5.582 2.604 -8.945 -2.033 0 0 -3.195 2.436 -5.749 0.364a4.364 4.364 0 0 1 -4.636 1.885" fill="#263238"/><path d="M153.335 58.558s-2.585 -5.791 -5.14 -4.933 -1.311 8.729 1.215 10.267a2.8 2.8 0 0 0 3.945 -0.769z" fill="#D3766A"/><path d="M148.613 55.855v0.069c1.755 1.135 2.416 3.096 2.76 5.06a1.549 1.549 0 0 0 -2.2 -0.849c-0.058 0 0 0.109 0 0.109a1.709 1.709 0 0 1 1.756 0.985q0.404 0.804 0.613 1.678c0 0.187 0.375 0.156 0.355 0 0.504 -2.545 -0.731 -6.304 -3.284 -7.053" fill="#263238"/><path d="m290.042 70.047 -106.185 32.525 19.145 62.504 106.185 -32.524z" fill="#3BB6FC"/><path opacity=".2" d="m290.042 70.047 -106.185 32.525 19.145 62.504 106.185 -32.524z" fill="#000"/><path opacity=".2" d="m290.036 70.049 -35.684 10.929 19.144 62.505 35.685 -10.931z" fill="#000"/><path d="M288.329 73.233a1460 1460 0 0 0 -3.511 16.609l-3.364 16.649 -3.255 16.716a1738.182 1738.182 0 0 0 -3.116 16.718 1480 1480 0 0 0 3.511 -16.609l3.364 -16.649 3.255 -16.678q1.596 -8.384 3.116 -16.756" fill="#3BB6FC"/><path d="M305.851 130.458a1287.273 1287.273 0 0 0 -11.944 -12.102l-12.033 -11.995 -12.111 -11.904q-6.075 -5.918 -12.211 -11.836 5.918 6.087 11.944 12.102l12.033 11.995 12.113 11.904a1274.545 1274.545 0 0 0 12.209 11.836" fill="#3BB6FC"/><path d="m204.249 110.627 0.584 -0.178 -2.515 -8.215 -0.585 0.18zm-1.387 0.418 0.585 -0.18 -2.516 -8.213 -0.585 0.178zm-1.402 0.445 0.585 -0.178 -2.516 -8.215 -0.585 0.18zm-1.387 0.404 0.585 -0.18 -2.515 -8.213 -0.585 0.178zm-1.402 0.435 0.584 -0.178 -2.515 -8.215 -0.585 0.18zm-1.391 0.416 0.584 -0.178 -2.515 -8.213 -0.585 0.178zm-1.407 0.46 0.585 -0.178 -2.516 -8.215 -0.584 0.18zm-1.395 0.416 0.585 -0.18 -2.518 -8.213 -0.584 0.178zm-1.405 0.442 0.584 -0.18 -2.515 -8.213 -0.585 0.178zm15.158 -12.958 -2.425 0.058 5.256 -1.627 -2.051 1.322 0.927 3.018c1.665 -0.285 2.791 1.105 3.638 3.867l-5.256 1.655c-0.849 -2.751 -0.7 -4.535 0.838 -5.236zm5.287 2.1 1.371 -0.424 -1.233 -4.024 3.511 -1.075 1.233 4.024 1.38 -0.424 -1.853 5.147z" fill="#263238"/><path opacity=".1" d="m183.86 102.575 1.569 5.129 73.398 -12.111 -4.478 -14.607z" fill="#000"/><path d="m322.944 139.638 -35.693 10.927 -13.76 -7.08 35.695 -10.938z" fill="#3BB6FC"/><path opacity=".2" d="m322.944 139.638 -35.693 10.927 -13.76 -7.08 35.695 -10.938z" fill="#000"/><path d="m195.567 178.655 35.695 -10.936 7.427 -13.571 -35.695 10.927z" fill="#3BB6FC"/><path opacity=".1" d="m195.567 178.655 35.695 -10.936 7.427 -13.571 -35.695 10.927z" fill="#000"/><path d="M136.825 92.929c5.218 17.447 19.727 47.342 25.109 50.991 4.745 3.264 27.518 0.296 37.48 -1.864 3.729 -0.8 -3.945 -29.264 -7.891 -28.327 -4.773 1.135 -18.985 3.945 -19.991 3.167 -1.005 -0.78 -14.795 -18.74 -24.656 -29.273 -8.956 -9.587 -12.024 -1.293 -10.051 5.305" fill="#D3766A"/><path d="M189.473 116.047s7.545 -8.502 12.891 -11.745a40.182 40.182 0 0 1 18.484 -5.278c7.011 -0.276 24.164 3.885 23.818 9.036 -0.305 4.664 -17.615 -0.485 -17.615 -0.485s18.511 2.338 17.111 7.891 -21.155 -1.578 -21.155 -1.578 18.965 2.82 16.658 8.335c-1.776 4.151 -20.033 -1.291 -20.033 -1.291s16.295 2.544 14.647 6.902c-1.815 4.804 -18.985 0.838 -18.985 0.838 -6.027 10.336 -13.138 12.822 -18.395 13.936 -1.313 0.227 -7.427 -26.56 -7.427 -26.56" fill="#D3766A"/><path d="M220.696 106.353c2.18 0.196 4.398 0.384 6.558 0.769 2.16 0.384 4.3 0.858 6.422 1.449a37.636 37.636 0 0 1 8.007 3.067c-4.684 -2.022 -12.396 -3.54 -14.556 -3.945s-4.3 -0.887 -6.451 -1.273c-0.058 0.02 -0.04 -0.067 0.02 -0.067m-1.549 7.782c2.773 0.364 5.553 0.631 8.315 1.124s5.316 1.204 8.029 1.884c0.207 0.049 0.107 0.147 -0.098 0.098 -2.742 -0.571 -5.307 -0.887 -8.049 -1.418 -2.742 -0.535 -5.464 -1.185 -8.216 -1.629 -0.038 0 -0.029 -0.069 0.02 -0.058m-2.535 6.429a62.364 62.364 0 0 1 12.585 2.704c0.207 0.058 0.069 0.167 -0.147 0.118 -4.162 -0.987 -7.427 -1.776 -12.447 -2.673 -0.078 -0.011 -0.078 -0.158 0.009 -0.149" fill="#263238"/><path d="m197.155 147.105 -6.629 -34.047 -18.473 2.9c-7.062 -8.482 -21.164 -25.445 -26.925 -30.575 -6.756 -6.025 -11.382 -1.727 -9.064 7.2 5.307 20.405 21.402 50.545 25.762 53.505 6.255 4.242 35.329 1.016 35.329 1.016" fill="#3BB6FC"/><path opacity=".1" d="M184.647 117.782a14.545 14.545 0 0 0 2.771 0.327c1.973 0.265 2.842 3.176 1.045 4.28a7.073 7.073 0 0 1 -6.351 0.542c-1.973 -0.769 -3.64 -2.682 -3.215 -4.931a2.465 2.465 0 0 1 3.944 -1.518q0.824 0.76 1.805 1.302m-1.973 -3.491a4.291 4.291 0 0 0 3.945 -0.118 1.455 1.455 0 0 0 0.513 -0.591zm-9.596 1.5c0.785 0.575 1.755 0.836 2.722 0.74a1.436 1.436 0 0 0 1.244 -1.362zm20.909 15.2a1.709 1.709 0 0 0 -0.887 0.847c-0.829 1.665 0.325 3.462 1.973 4.536zm-29.707 6.547c-0.315 1.095 -0.355 2.073 -1.173 2.958a13.455 13.455 0 0 0 -2.347 2.436 1.447 1.447 0 0 0 1.322 2.111 6.904 6.904 0 0 0 6.055 -7.12 1.971 1.971 0 0 0 -3.825 -0.385zm-3.402 -9.556c-0.553 1.34 -0.455 2.86 -0.918 4.26q-0.609 1.927 -1.449 3.767c-0.415 0.887 0.415 2.289 1.491 1.815a7.418 7.418 0 0 0 4.002 -3.658c0.751 -1.549 1.578 -4.153 0.858 -5.8s-3.116 -2.327 -3.955 -0.384zm-14.636 -34.885a2.182 2.182 0 0 0 2.564 -1.598c0.553 -2.12 -1.34 -4.3 -2.84 -5.622s-3.609 -2.524 -5.709 -1.844a1.727 1.727 0 0 0 -0.702 2.851c0.918 1.144 2.189 1.973 3.165 3.096s1.836 2.831 3.551 3.116zm7.615 8.413c0.827 -1.193 0.187 -2.958 -0.405 -4.091a3.636 3.636 0 0 0 -1.409 -1.5 1.836 1.836 0 0 0 -2.527 0.542 2.418 2.418 0 0 0 -0.116 1.795q0.124 0.465 0.335 0.898v0.167c0.176 0.942 0.576 1.827 1.164 2.584a1.876 1.876 0 0 0 2.96 -0.395m-2.358 9.864c0.362 0.078 0.735 0.078 1.095 0 0.547 -0.169 1.009 -0.538 1.293 -1.036 0.265 -0.527 0.396 -1.115 0.385 -1.705a3.455 3.455 0 0 0 -0.445 -1.598l-0.325 -0.404 -0.433 -0.316a2.033 2.033 0 0 0 -2.9 1.302q-0.247 0.864 -0.345 1.756l0.089 0.542a1.636 1.636 0 0 0 0.395 0.729c0.304 0.331 0.704 0.555 1.145 0.642zm8.275 -10.011 -1.973 -2.218a1.291 1.291 0 0 0 -1.409 0.985 6.364 6.364 0 0 0 0 1.736v0.749q-0.007 0.558 0.118 1.104a1.745 1.745 0 0 0 2.798 0.855 1.818 1.818 0 0 0 0.604 -0.953 4.473 4.473 0 0 0 -0.138 -2.258" fill="#030402"/><path d="M190.782 143.978c-0.798 -2.022 -2.673 -10.8 -3.116 -13s-1.913 -11.036 -2.356 -13.293c0 -0.12 0.138 -0.198 0.167 -0.069 0.473 2.218 2.653 10.967 3.116 13.156s2.229 10.967 2.307 13.176a0.055 0.055 0 0 1 -0.005 0.047 0.062 0.062 0 0 1 -0.084 0.02 0.055 0.055 0 0 1 -0.029 -0.036m-6.095 4.082c-3.027 0.178 -6.055 0.247 -9.084 0.227a74.545 74.545 0 0 1 -9.093 -0.524 14.545 14.545 0 0 1 -4.478 -1.182 13.455 13.455 0 0 1 -3.275 -3.305 67.273 67.273 0 0 1 -4.844 -7.742c-2.958 -5.316 -5.502 -10.849 -7.987 -16.353a241.818 241.818 0 0 1 -6.816 -16.865c2.515 5.513 5 11.036 7.585 16.509 2.582 5.475 5.196 10.929 8.018 16.265a81.818 81.818 0 0 0 4.655 7.733 12.545 12.545 0 0 0 2.96 3.224 14 14 0 0 0 4.249 1.195 120 120 0 0 0 18.109 0.818" fill="#263238"/><path d="M141.036 107.131a9.091 9.091 0 0 1 -1.096 -1.331 5.455 5.455 0 0 1 -0.76 -1.549q0.222 0.369 0.484 0.709l0.484 0.702q0.485 0.709 0.887 1.469m15.576 -9.142c2.495 2.504 4.733 5.255 7.051 7.891 2.318 2.631 4.536 5.413 6.904 8.036l0.878 0.985c0.158 0.149 0.305 0.316 0.455 0.455 0.145 0.138 0.145 0.127 0.216 0.187h0.109c0.749 0 1.696 -0.167 2.545 -0.276l5.245 -0.778c3.491 -0.513 6.993 -1.045 10.495 -1.52l0.138 0.869 -0.207 -0.858h0.049c-3.462 0.74 -6.904 1.4 -10.416 2.042 -1.745 0.315 -3.491 0.591 -5.245 0.858q-1.349 0.233 -2.713 0.315a0.909 0.909 0 0 1 -0.218 0 0.727 0.727 0 0 1 -0.265 -0.138 3.636 3.636 0 0 1 -0.285 -0.245l-0.484 -0.473a29.091 29.091 0 0 1 -0.909 -0.987 294.545 294.545 0 0 1 -6.775 -8.176l-3.304 -4.153c-1.085 -1.291 -2.073 -2.713 -3.265 -4.033" fill="#263238"/><path d="M157.902 98.285c0.371 0.455 0.7 0.945 0.985 1.458 0.278 0.509 0.473 1.058 0.582 1.627 -0.118 -0.265 -0.267 -0.502 -0.404 -0.758l-0.405 -0.76a16.364 16.364 0 0 1 -0.76 -1.567" fill="#263238"/><path d="M39.607 356.187c-0.364 -9.229 -0.236 -18.471 0.385 -27.685a351.818 351.818 0 0 1 8.669 -56.365c2.416 -10.435 5.395 -20.713 8.502 -30.951 0.087 -0.305 0.582 -0.216 0.502 0.1 -9.596 36.136 -17.476 73.438 -16.935 110.995 0.158 10.515 1.371 20.84 2.367 31.285 0 0.285 -0.433 0.395 -0.491 0.109 -1.984 -8.965 -2.625 -18.355 -3 -27.487" fill="#3BB6FC"/><path d="M57.665 241.235s14.538 36.907 11.284 45.576 -9.971 10.524 -9.971 10.524 8.876 12.704 2.682 24.656c-6.193 11.955 -20.02 11.344 -20.947 24.855 0 -0.038 -0.771 -56.513 16.953 -105.611" fill="#3BB6FC"/><path d="M42.302 323.491a0.273 0.273 0 0 1 0 -0.196 338.182 338.182 0 0 1 14.115 -74.238c0 -0.069 0.136 -0.049 0.118 0a549.091 549.091 0 0 0 -7.635 32.547 16.073 16.073 0 0 1 6.904 -3.865s0.069 0 0 0.069a18.455 18.455 0 0 0 -7.16 4.793 627.273 627.273 0 0 0 -1.233 6.42c3.245 -3.629 7.753 -5.435 12.26 -7.149 0.058 0 0.098 0.078 0 0.098 -4.696 1.913 -9.382 4.378 -12.556 8.422a436.364 436.364 0 0 0 -2.958 18.435 17.455 17.455 0 0 1 8.669 -4.931c0.098 0 0.158 0.127 0 0.156a18.364 18.364 0 0 0 -8.787 5.633h-0.06a429.091 429.091 0 0 0 -0.818 6.518 22 22 0 0 1 6.264 -3.629c0.058 0 0.087 0.069 0 0.089a21.091 21.091 0 0 0 -6.027 4.035h-0.078c-0.236 2.06 -0.484 4.131 -0.691 6.204a29.636 29.636 0 0 1 12.327 -8.809l0.031 -0.005q0.018 0 0.031 0.007 0.016 0.005 0.025 0.018l0.018 0.025a0.073 0.073 0 0 1 0 0.06 0.073 0.073 0 0 1 -0.045 0.044 32.182 32.182 0 0 0 -12.151 9.349 0.273 0.273 0 0 1 -0.136 0.102 0.291 0.291 0 0 1 -0.169 -0.002c-0.316 3.175 -0.6 6.36 -0.829 9.545h-0.078c0.158 -3.224 0.384 -6.489 0.651 -9.744" fill="#263238"/><path d="M53.98 274.109a18.182 18.182 0 0 1 8.738 -2.724c0.069 0 0.078 0.1 0 0.109a34.545 34.545 0 0 0 -8.64 2.82 0.127 0.127 0 0 1 -0.076 -0.009 0.127 0.127 0 0 1 -0.055 -0.055 0.118 0.118 0 0 1 0.033 -0.142m-1.767 39.065a18.364 18.364 0 0 1 6.558 -2.238c0.078 0 0.089 0.107 0 0.118 -2.262 0.455 -4.449 1.22 -6.5 2.278 -0.069 0.038 -0.147 -0.109 -0.058 -0.158" fill="#263238"/><path d="M1.391 287.413a98.909 98.909 0 0 1 16.825 14.715 60.364 60.364 0 0 1 11.836 20.013 150 150 0 0 1 8.787 47.864 115.818 115.818 0 0 1 -2.595 26.916 0.258 0.258 0 0 1 -0.451 0.089 0.255 0.255 0 0 1 -0.053 -0.178 150.909 150.909 0 0 0 -0.236 -47.056c-2.505 -15.267 -6.42 -31.876 -16.125 -44.284 -5.336 -6.725 -11.924 -12.062 -18.395 -17.575 -0.384 -0.276 0.049 -0.751 0.405 -0.504" fill="#3BB6FC"/><path d="M36.669 359.016a90.364 90.364 0 0 0 -12.26 -15.682c-7.278 -7.269 -13.404 -12.436 -14.349 -17.249s7.287 -8.344 7.287 -8.344 -10.069 1.804 -12.822 -2.427S0.444 286.635 0.444 286.635s18.295 13.116 26.845 31.393 9.38 40.989 9.38 40.989" fill="#3BB6FC"/><path d="M6.984 309.615a16.364 16.364 0 0 1 3.64 -0.118c0.147 0 0.138 0.256 0 0.256 -1.204 0 -2.407 -0.06 -3.62 0 -0.098 -0.02 -0.098 -0.138 -0.018 -0.138m13.173 23.671a16.364 16.364 0 0 1 5.651 1.133v0.08c-1.864 -0.444 -3.749 -0.631 -5.633 -0.938 -0.187 0 -0.176 -0.275 -0.018 -0.275m3.956 -8.176a12.182 12.182 0 0 1 2.396 0.216c0.078 0 0.069 0.149 0 0.149q-1.204 0.058 -2.396 -0.12a0.127 0.127 0 0 1 0 -0.245" fill="#263238"/><path d="M90.345 313.382a83.273 83.273 0 0 0 -17.015 8.009 51.091 51.091 0 0 0 -14.153 13.473 126.182 126.182 0 0 0 -18.178 36.709 98.182 98.182 0 0 0 -4.122 22.378q0 0.091 0.064 0.155a0.218 0.218 0 0 0 0.153 0.062 0.218 0.218 0 0 0 0.153 -0.062 0.218 0.218 0 0 0 0.064 -0.155 127.091 127.091 0 0 1 11.018 -37.982c5.553 -11.776 12.564 -24.311 23.285 -32.104 5.838 -4.251 12.398 -7.022 18.936 -9.96 0.385 -0.158 0.187 -0.642 -0.207 -0.524" fill="#3BB6FC"/><path d="M45.249 363.169a75.818 75.818 0 0 1 13.542 -9.862c7.575 -4.202 13.72 -6.975 15.604 -10.642s-3.945 -8.444 -3.945 -8.444 7.722 3.787 10.927 0.987 9.933 -22.28 9.933 -22.28 -17.833 6.351 -28.976 19.213c-11.145 12.86 -17.084 31.027 -17.084 31.027" fill="#3BB6FC"/><path d="M60.055 345.258a13.818 13.818 0 0 1 5.176 0.631v0.08a40 40 0 0 0 -5.158 -0.533 0.091 0.091 0 0 1 -0.065 -0.02 0.091 0.091 0 0 1 -0.013 -0.125 0.091 0.091 0 0 1 0.058 -0.033m15.565 -20.416c0.798 -0.056 1.6 -0.011 2.387 0.138a0.073 0.073 0 0 1 0.051 0.075 0.073 0.073 0 0 1 -0.051 0.075c-0.78 -0.089 -1.558 -0.06 -2.347 -0.08a0.109 0.109 0 0 1 -0.067 -0.025 0.109 0.109 0 0 1 -0.024 -0.133 0.109 0.109 0 0 1 0.051 -0.049" fill="#263238"/><path d="M22.242 418.549h40.26l-5.74 -42.065 -1.471 -10.78H29.451l-1.469 10.78z" fill="#455A64"/><path d="M27.982 376.484h28.78l-1.471 -10.78H29.451z" fill="#263238"/><path d="M25.74 371.089h33.247v-9.133H25.74z" fill="#455A64"/><path d="M236.707 23.367a21.909 21.909 0 0 1 -23.795 21.822c-4.044 -0.351 -7.911 -1.818 -11.169 -4.236l-10.74 2.742 4.467 -9.991a21.909 21.909 0 0 1 -0.718 -19.216 21.916 21.916 0 0 1 41.955 8.88" fill="#fff"/><path d="M236.705 23.356c0 4.065 -1.12 8.049 -3.235 11.52a25.455 25.455 0 0 1 -1.696 2.525q-0.982 1.16 -2.102 2.189a21.455 21.455 0 0 1 -10.651 5.455q-1.5 0.3 -3.027 0.375 -1.525 0.125 -3.049 0a22.182 22.182 0 0 1 -11.362 -4.191l0.296 0.058 -10.711 2.822 -0.867 0.225 0.364 -0.827 4.429 -10.011v0.415a22.164 22.164 0 0 1 -0.691 -19.598 22.473 22.473 0 0 1 6.085 -8 22.327 22.327 0 0 1 18.918 -4.564 22.455 22.455 0 0 1 8.945 4.278 22.036 22.036 0 0 1 8.353 17.329m0 0a21.691 21.691 0 0 0 -17.418 -21.264 21.636 21.636 0 0 0 -9.753 0.296 21.455 21.455 0 0 0 -8.611 4.496 22.545 22.545 0 0 0 -5.76 7.831 21.527 21.527 0 0 0 -1.795 9.498 22 22 0 0 0 2.524 9.242l0.109 0.207 -0.098 0.207 -4.507 9.982 -0.504 -0.593 10.76 -2.664h0.169l0.127 0.1a21.545 21.545 0 0 0 10.978 4.291 20 20 0 0 0 2.958 0 21.091 21.091 0 0 0 8.669 -2.2 20.364 20.364 0 0 0 4.931 -3.375q1.118 -1.013 2.102 -2.158 0.942 -1.178 1.745 -2.456a22.073 22.073 0 0 0 3.373 -11.442" fill="#263238"/><path d="M216.318 25.735v2.416a1.769 1.769 0 0 1 -1.824 1.824 1.8 1.8 0 0 1 -1.68 -1.127 1.818 1.818 0 0 1 -0.135 -0.696V24.145a1.88 1.88 0 0 1 1.815 -1.824 4.164 4.164 0 0 0 4.364 -4.158 4.164 4.164 0 0 0 -4.364 -4.156 4.109 4.109 0 0 0 -3.56 2.042 1.855 1.855 0 0 1 -2.525 0.671 1.818 1.818 0 0 1 -0.835 -1.116 1.818 1.818 0 0 1 0.204 -1.38 7.796 7.796 0 0 1 13.011 -0.731 7.782 7.782 0 0 1 1.064 7.325 7.818 7.818 0 0 1 -5.535 4.916m0 8.136v0.671a1.782 1.782 0 0 1 -0.522 1.298 1.782 1.782 0 0 1 -1.302 0.516 1.818 1.818 0 0 1 -1.815 -1.815v-0.671a1.842 1.842 0 0 1 2.516 -1.691 1.818 1.818 0 0 1 0.989 0.989q0.138 0.338 0.133 0.702" fill="#3BB6FC"/></g><defs><clipPath id="a"><path fill="#fff" d="M0 0.909h398.456v418.182H0z"/></clipPath></defs></svg>