<svg width="45" height="45" viewBox="0 0 45 45" fill="none" xmlns="http://www.w3.org/2000/svg">
<rect x="0.5" y="0.5" width="44" height="44" rx="11.5" fill="white"/>
<rect x="0.5" y="0.5" width="44" height="44" rx="11.5" stroke="#D7D7D7"/>
<path d="M24.2897 32C24.1184 32 23.9518 31.9444 23.8147 31.8417L20.6481 29.4667C20.5497 29.3929 20.4699 29.2973 20.415 29.1874C20.36 29.0775 20.3314 28.9562 20.3314 28.8333V24.3842L14.7771 18.1355C14.3826 17.6905 14.125 17.1411 14.0353 16.5532C13.9456 15.9653 14.0276 15.364 14.2714 14.8216C14.5152 14.2792 14.9105 13.8188 15.4097 13.4956C15.909 13.1725 16.4909 13.0004 17.0856 13H28.3272C28.9218 13.0007 29.5036 13.1731 30.0026 13.4965C30.5017 13.8198 30.8967 14.2804 31.1402 14.8229C31.3838 15.3653 31.4655 15.9666 31.3756 16.5544C31.2857 17.1422 31.0279 17.6915 30.6333 18.1363L25.0814 24.3842V31.2083C25.0814 31.4183 24.998 31.6197 24.8495 31.7681C24.701 31.9166 24.4997 32 24.2897 32ZM21.9147 28.4375L23.4981 29.625V24.0833C23.4982 23.8895 23.5695 23.7025 23.6983 23.5577L29.4522 17.0842C29.644 16.8674 29.7692 16.5997 29.8127 16.3135C29.8562 16.0272 29.8162 15.7345 29.6974 15.4704C29.5786 15.2064 29.3862 14.9822 29.1431 14.8249C28.9001 14.6675 28.6168 14.5836 28.3272 14.5833H17.0856C16.7962 14.5838 16.513 14.6677 16.2701 14.825C16.0272 14.9823 15.8349 15.2064 15.7161 15.4703C15.5974 15.7342 15.5573 16.0267 15.6006 16.3129C15.644 16.599 15.769 16.8665 15.9606 17.0834L21.7152 23.5577C21.8438 23.7026 21.9148 23.8896 21.9147 24.0833V28.4375Z" fill="#3BB6FC"/>
</svg>
