<svg width="14" height="14" viewBox="0 0 14 14" fill="none" xmlns="http://www.w3.org/2000/svg">
<path d="M8.07268 6.86827L13.469 1.46602C13.804 1.13064 13.804 0.586886 13.469 0.251534C13.134 -0.0838447 12.5909 -0.0838447 12.256 0.251534L6.86023 5.65435L1.46449 0.251534C1.12952 -0.0838447 0.586422 -0.0838447 0.251475 0.251534C-0.0834726 0.586913 -0.0834994 1.13067 0.251475 1.46602L5.64777 6.86827L0.251475 12.2705C-0.0834994 12.6059 -0.0834994 13.1497 0.251475 13.485C0.586449 13.8204 1.12955 13.8204 1.46449 13.485L6.86023 8.08219L12.256 13.485C12.5909 13.8204 13.134 13.8204 13.469 13.485C13.8039 13.1497 13.8039 12.6059 13.469 12.2705L8.07268 6.86827Z" fill="black"/>
</svg>
