<svg width="29" height="29" viewBox="0 0 29 29" fill="none" xmlns="http://www.w3.org/2000/svg">
<rect x="1" y="1" width="26.5714" height="26.7914" rx="13.2857" fill="#3BB6FC" stroke="white" stroke-width="2"/>
<path d="M17.8602 10.7938C17.4971 10.7938 17.1638 10.5839 16.9971 10.26L16.5686 9.39023C16.2947 8.8444 15.5805 8.39453 14.9733 8.39453H13.6102C12.9971 8.39453 12.2828 8.8444 12.009 9.39023L11.5805 10.26C11.4138 10.5839 11.0805 10.7938 10.7174 10.7938C9.4257 10.7938 8.40189 11.8915 8.48522 13.1871L8.79474 18.1416C8.86617 19.3772 9.52689 20.3909 11.1697 20.3909H17.4078C19.0507 20.3909 19.7055 19.3772 19.7828 18.1416L20.0924 13.1871C20.1757 11.8915 19.1519 10.7938 17.8602 10.7938ZM13.3959 11.5436H15.1817C15.4257 11.5436 15.6281 11.7475 15.6281 11.9935C15.6281 12.2394 15.4257 12.4433 15.1817 12.4433H13.3959C13.1519 12.4433 12.9495 12.2394 12.9495 11.9935C12.9495 11.7475 13.1519 11.5436 13.3959 11.5436ZM14.2888 18.0636C13.1816 18.0636 12.2769 17.1579 12.2769 16.0362C12.2769 14.9146 13.1757 14.0088 14.2888 14.0088C15.4019 14.0088 16.3007 14.9146 16.3007 16.0362C16.3007 17.1579 15.3959 18.0636 14.2888 18.0636Z" fill="white"/>
</svg>
