<svg width="8" height="8" viewBox="0 0 8 8" fill="none" xmlns="http://www.w3.org/2000/svg">
<path d="M4.54849 3.99988L7.5891 0.955925C7.77784 0.766952 7.77784 0.460569 7.5891 0.271612C7.40036 0.0826397 7.09434 0.0826397 6.90561 0.271612L3.86532 3.31588L0.825045 0.271612C0.636301 0.0826397 0.330287 0.0826397 0.141558 0.271612C-0.047171 0.460584 -0.0471861 0.766967 0.141558 0.955925L3.18215 3.99988L0.141558 7.04384C-0.0471861 7.23281 -0.0471861 7.5392 0.141558 7.72815C0.330303 7.91711 0.636316 7.91713 0.825045 7.72815L3.86532 4.68387L6.9056 7.72815C7.09434 7.91713 7.40036 7.91713 7.58909 7.72815C7.77783 7.53918 7.77783 7.2328 7.58909 7.04384L4.54849 3.99988Z" fill="white"/>
</svg>
