<svg width="100" height="100" viewBox="0 0 100 100" fill="none" xmlns="http://www.w3.org/2000/svg">
<rect width="100" height="100" rx="50" fill="#EAF7FF"/>
<g clip-path="url(#clip0_2001_11336)">
<path d="M49.625 54.5C53.5312 54.5 57.3496 53.3417 60.5975 51.1715C63.8454 49.0014 66.3768 45.9168 67.8716 42.308C69.3665 38.6992 69.7576 34.7281 68.9955 30.897C68.2335 27.0659 66.3524 23.5467 63.5904 20.7846C60.8283 18.0226 57.3092 16.1416 53.478 15.3795C49.6469 14.6174 45.6758 15.0086 42.067 16.5034C38.4582 17.9982 35.3736 20.5296 33.2035 23.7775C31.0333 27.0254 29.875 30.8438 29.875 34.75C29.8802 39.9864 31.9627 45.0069 35.6654 48.7096C39.3681 52.4123 44.3886 54.4948 49.625 54.5ZM49.625 21.5833C52.2291 21.5833 54.7748 22.3556 56.94 23.8023C59.1053 25.2491 60.7929 27.3055 61.7894 29.7113C62.786 32.1172 63.0467 34.7646 62.5387 37.3187C62.0306 39.8728 60.7766 42.2189 58.9352 44.0602C57.0938 45.9016 54.7478 47.1556 52.1937 47.6637C49.6396 48.1717 46.9922 47.911 44.5863 46.9144C42.1804 45.9179 40.1241 44.2303 38.6773 42.065C37.2305 39.8998 36.4583 37.3541 36.4583 34.75C36.4583 31.258 37.8455 27.909 40.3148 25.4398C42.784 22.9705 46.133 21.5833 49.625 21.5833Z" fill="#3BB6FC"/>
<path d="M49.625 61.084C41.7706 61.0927 34.2405 64.2167 28.6866 69.7706C23.1327 75.3244 20.0087 82.8546 20 90.709C20 91.582 20.3468 92.4192 20.9641 93.0366C21.5814 93.6539 22.4187 94.0007 23.2917 94.0007C24.1647 94.0007 25.0019 93.6539 25.6192 93.0366C26.2365 92.4192 26.5833 91.582 26.5833 90.709C26.5833 84.598 29.0109 78.7372 33.3321 74.4161C37.6532 70.0949 43.514 67.6673 49.625 67.6673C55.736 67.6673 61.5968 70.0949 65.9179 74.4161C70.2391 78.7372 72.6667 84.598 72.6667 90.709C72.6667 91.582 73.0135 92.4192 73.6308 93.0366C74.2481 93.6539 75.0853 94.0007 75.9583 94.0007C76.8313 94.0007 77.6686 93.6539 78.2859 93.0366C78.9032 92.4192 79.25 91.582 79.25 90.709C79.2413 82.8546 76.1173 75.3244 70.5634 69.7706C65.0095 64.2167 57.4794 61.0927 49.625 61.084Z" fill="#3BB6FC"/>
</g>
<defs>
<clipPath id="clip0_2001_11336">
<rect width="59.25" height="79" fill="white" transform="translate(20 15)"/>
</clipPath>
</defs>
</svg>
